<svg width="688" height="126" viewBox="0 0 688 126" fill="none" xmlns="http://www.w3.org/2000/svg">
<rect x="0.5" y="0.5" width="687" height="125" rx="4.5" fill="#F7F7F7" stroke="#D9D9D9" stroke-dasharray="3 3"/>
<path d="M337 81.5H346.5V85.5H332.5V51.5H362H366.5V65.5H362.5V56V55.5H362H337H336.5V56V81V81.5H337ZM361.5 80.5H357H356.5V81V85.5H352.5V76V71.5H366.5V75.5H362H361.5V76V80.5ZM362.5 81.5H366.5V85.5H362.5V81.5ZM322.5 45.5V41.5H326.5V45.5H322.5ZM332.5 41.5H336.5V45.5H332.5V41.5ZM322.5 55.5V51.5H326.5V55.5H322.5ZM322.5 61.5H326.5V65.5H322.5V61.5ZM322.5 75.5V71.5H326.5V75.5H322.5ZM342.5 41.5H346.5V45.5H342.5V41.5ZM352.5 45.5V41.5H356.5V45.5H352.5Z" fill="#D9D9D9" stroke="#D9D9D9"/>
</svg>
