<svg width="688" height="126" viewBox="0 0 688 126" fill="none" xmlns="http://www.w3.org/2000/svg">
<rect x="0.5" y="0.5" width="687" height="125" rx="4.5" fill="#F7F7F7" stroke="#D9D9D9" stroke-dasharray="3 3"/>
<path d="M340.333 73.7222H345.389V75.5H338.056V57.0556H354.222H356.5V64.3889H354.722V59.3333V58.8333H354.222H340.333H339.833V59.3333V73.2222V73.7222H340.333ZM353.722 72.7222H351.444H350.944V73.2222V75.5H349.167V70.4444V68.1667H356.5V69.9444H354.222H353.722V70.4444V72.7222ZM354.722 73.7222H356.5V75.5H354.722V73.7222ZM332.5 53.2778V51.5H334.278V53.2778H332.5ZM338.056 51.5H339.833V53.2778H338.056V51.5ZM332.5 58.8333V57.0556H334.278V58.8333H332.5ZM332.5 62.6111H334.278V64.3889H332.5V62.6111ZM332.5 69.9444V68.1667H334.278V69.9444H332.5ZM343.611 51.5H345.389V53.2778H343.611V51.5ZM349.167 53.2778V51.5H350.944V53.2778H349.167Z" fill="#D9D9D9" stroke="#D9D9D9"/>
</svg>
