<svg width="1046" height="84" viewBox="0 0 1046 84" fill="none" xmlns="http://www.w3.org/2000/svg">
<rect width="1046" height="84" rx="5" fill="#F7F7F7"/>
<path d="M514.25 30.75H511.75V33.25H514.25V30.75ZM531.75 35.75H534.25V43.25H531.75V38.25H519.25V50.75H524.25V53.25H516.75V35.75H531.75ZM516.75 30.75H519.25V33.25H516.75V30.75ZM514.25 35.75H511.75V38.25H514.25V35.75ZM511.75 40.75H514.25V43.25H511.75V40.75ZM514.25 45.75H511.75V48.25H514.25V45.75ZM521.75 30.75H524.25V33.25H521.75V30.75ZM529.25 30.75H526.75V33.25H529.25V30.75ZM526.75 48.25V45.75H534.25V48.25H531.75V50.75H529.25V53.25H526.75V48.25ZM531.75 50.75V53.25H534.25V50.75H531.75Z" fill="#D9D9D9"/>
</svg>
