<svg width="172" height="55" viewBox="0 0 172 55" fill="none" xmlns="http://www.w3.org/2000/svg">
<path fill-rule="evenodd" clip-rule="evenodd" d="M26.0125 40.2754C24.2935 41.9258 22.1579 42.7805 19.9795 42.6876C13.7699 42.6876 9.64784 36.825 9.64784 27.5034C9.64784 18.032 13.7287 12.2454 19.9795 12.2454C22.0173 12.1673 24.0192 12.9059 25.6869 14.3473L30.3248 6.58535C27.4403 4.20695 24.6122 2.74023 19.1294 2.74023C7.20033 2.74023 0.399414 12.6738 0.399414 27.5034C0.399414 42.7129 7.51227 52.1928 19.1294 52.1928C26.5439 52.1928 29.4199 49.061 30.7396 47.9467L26.0125 40.2754Z" fill="#A2A2A2"/>
<path fill-rule="evenodd" clip-rule="evenodd" d="M110.124 40.1995C108.383 41.8857 106.218 42.7742 104.004 42.713C97.7941 42.713 93.672 36.8504 93.672 27.5288C93.672 18.0574 97.7872 12.2708 104.004 12.2708C106.04 12.1948 108.042 12.9313 109.709 14.3727L114.349 6.61074C111.465 4.23234 108.635 2.76562 103.154 2.76562C91.2451 2.76562 84.4219 12.6992 84.4219 27.5288C84.4219 42.7383 91.5365 52.2181 103.154 52.2181C110.566 52.2181 113.444 49.0863 114.764 47.9721L110.124 40.1995Z" fill="#A2A2A2"/>
<path fill-rule="evenodd" clip-rule="evenodd" d="M65.8754 3.6123C74.4245 3.6123 78.9407 7.8415 78.9407 15.8398C78.9407 21.6265 75.8865 24.5979 72.9488 26.0731L72.9282 26.1723C76.3698 27.3794 80.4096 30.1334 80.4096 37.7139C80.4096 46.5058 75.1392 51.347 65.5755 51.347H51.9736V3.6123H65.8754ZM64.7185 30.6209H60.965V42.9814H64.8282C68.7257 42.9814 71.3171 41.0969 71.3171 36.9436C71.3171 32.5456 68.7462 30.6209 64.7185 30.6209ZM64.7185 11.5516H60.965V22.631H64.4871C67.8893 22.631 70.3436 20.9554 70.3436 17.1462C70.3436 14.5905 69.0787 11.5516 64.7185 11.5516Z" fill="#A2A2A2"/>
<path fill-rule="evenodd" clip-rule="evenodd" d="M34.7266 3.6123V51.347H43.6836V3.6123H34.7266Z" fill="#A2A2A2"/>
<path fill-rule="evenodd" clip-rule="evenodd" d="M156.511 2.57444C155.708 1.21325 154.406 0.436627 153.041 0.50627H138.622C140.009 0.436627 141.327 1.23646 142.125 2.63353C143.581 5.02037 156.987 27.5043 156.987 27.5043C156.987 27.5043 143.581 49.982 142.125 52.3773C141.325 53.7701 140.007 54.5678 138.622 54.4961H153.041C154.406 54.5679 155.707 53.7933 156.511 52.4364L171.4 27.5043L156.511 2.57444Z" fill="#A2A2A2"/>
<path fill-rule="evenodd" clip-rule="evenodd" d="M145.833 8.80444C144.004 5.75705 142.561 3.34489 142.125 2.63158C141.328 1.23662 140.009 0.434674 138.624 0.504317C137.256 0.434674 135.952 1.21129 135.148 2.5746L120.259 27.5045L135.148 52.4281C135.953 53.7872 137.258 54.5617 138.624 54.4878C140.007 54.5596 141.327 53.7619 142.125 52.369L145.833 46.1877L134.671 27.5045L145.833 8.80444Z" fill="#A2A2A2"/>
</svg>
