<svg width="160" height="61" viewBox="0 0 160 61" fill="none" xmlns="http://www.w3.org/2000/svg">
<g clip-path="url(#clip0_1417_3180)">
<path d="M5.94609 6.10662C5.88864 1.80423 0.899414 2.98294 0.899414 1.68656C0.899414 1.15553 1.36344 1.03764 1.82746 1.03898C3.97411 1.03898 6.06198 1.27312 8.20864 1.27312C10.0073 1.27312 11.8048 1.03888 13.6034 1.03734C14.5901 1.03734 14.7061 1.39215 14.7061 1.62797C14.7061 2.80515 10.5286 1.68649 10.5286 6.10662V18.8376C10.5286 19.6626 10.5288 19.8984 11.3995 19.8984H32.6314C33.2114 19.8984 33.0953 18.4246 33.0953 18.1889V6.10662C33.0953 2.03992 28.7448 3.04096 28.7448 1.68633C28.7448 1.33266 28.8608 1.03741 29.7301 1.03875C31.6447 1.03875 34.6607 1.27289 35.7634 1.27289C37.91 1.27289 38.7806 1.03865 39.9406 1.03711C41.4486 1.03711 41.5646 1.62779 41.5646 1.98C41.5646 3.04068 37.6781 2.03961 37.6781 6.10639V37.3436C37.6781 41.6473 42.9568 40.5866 42.9568 42.0592C42.9568 42.2366 42.7247 42.7663 42.3194 42.7663C40.7527 42.7663 38.9541 42.5305 36.8661 42.5305C33.1527 42.5305 31.5288 42.7663 30.4274 42.7663C29.9048 42.7663 29.0341 42.9436 29.0341 42.0008C29.0341 40.5865 33.0953 41.4115 33.0953 37.6984V23.553C33.0953 22.6088 33.3275 22.0792 32.6314 22.0792H11.2248C10.5288 22.0792 10.5286 22.4328 10.5286 23.0802V37.7568C10.5286 41.7652 16.0394 40.4686 16.0394 42.2947C16.0394 42.59 15.6341 42.7663 15.1114 42.7663C14.3581 42.7663 10.1234 42.5305 7.04876 42.5305C2.93009 42.5305 2.29132 42.7663 2.05929 42.7663C1.59532 42.7663 1.42076 42.4724 1.42076 41.8829C1.42076 40.1734 5.94609 42.1187 5.94609 36.2828V6.10662Z" fill="#A2A2A2"/>
<path d="M66.8577 0.507812C77.763 0.507812 80.7804 5.046 82.463 5.046C82.927 5.046 83.2749 4.45678 83.855 4.45678C84.4923 4.45678 84.4923 5.39952 84.667 9.23052C84.783 12.3544 85.3043 14.2998 84.3189 14.2998C83.6229 14.2998 83.2163 12.7663 82.9844 12.3545C79.3884 6.04854 75.2695 2.21757 67.7855 2.21757C56.4735 2.21757 51.0203 9.87952 51.0203 20.8414C51.0203 31.0976 56.8217 41.3522 67.959 41.3522C77.067 41.3522 82.7522 35.4581 83.6229 32.7474C83.7389 32.3356 84.0869 31.9822 84.4349 31.9822C84.724 31.9822 85.0149 32.3359 84.9562 32.6297L83.6229 38.5238C83.5643 38.7596 79.4455 43.1799 66.3936 43.1799C54.5003 43.1799 45.9736 34.8689 45.9736 22.6688C45.9736 10.4687 54.6164 0.507812 66.8577 0.507812Z" fill="#A2A2A2"/>
<path d="M88.4371 32.3356C88.2039 31.1557 88.4946 30.5082 89.0745 30.5082C89.8865 30.5082 89.8865 31.2153 90.1772 32.4535C90.8732 35.1642 94.3531 41.2939 102.358 41.2939C107.87 41.2939 113.267 38.17 113.267 31.9819C113.267 20.6055 89.7132 26.971 89.7132 11.5888C89.7132 4.10293 95.9198 0.507812 102.59 0.507812C109.61 0.507812 111.524 2.62913 112.339 2.62913C112.86 2.62913 112.976 1.98156 113.556 1.98156C113.904 1.98156 114.194 2.15783 114.252 2.80656L115.122 10.8222C115.18 11.2936 115.064 11.7067 114.484 11.7067C113.847 11.7067 113.44 10.4687 113.267 9.93903C111.524 4.86986 107.291 2.2757 102.185 2.2757C97.6025 2.2757 92.7304 4.51632 92.7304 9.93903C92.7304 21.0188 116.283 14.5353 116.283 30.8021C116.283 35.7534 112.86 43.1796 99.6906 43.1796C95.3972 43.1796 90.1185 40.9999 89.8865 39.9392L88.4371 32.3356Z" fill="#A2A2A2"/>
<path d="M140.994 0.507812C151.9 0.507812 154.916 5.046 156.6 5.046C157.064 5.046 157.412 4.45678 157.992 4.45678C158.629 4.45678 158.629 5.39952 158.804 9.23052C158.92 12.3544 159.441 14.2998 158.455 14.2998C157.759 14.2998 157.353 12.7663 157.121 12.3545C153.524 6.04854 149.406 2.21757 141.922 2.21757C130.609 2.21757 125.157 9.87952 125.157 20.8414C125.157 31.0976 130.957 41.3522 142.096 41.3522C151.204 41.3522 156.889 35.4581 157.76 32.7474C157.876 32.3356 158.224 31.9822 158.572 31.9822C158.861 31.9822 159.152 32.3359 159.093 32.6297L157.76 38.5238C157.701 38.7596 153.581 43.1799 140.53 43.1799C128.637 43.1799 120.109 34.8689 120.109 22.6688C120.109 10.4687 128.753 0.507812 140.994 0.507812Z" fill="#A2A2A2"/>
<path d="M9.85854 56.3548C9.85854 57.9005 11.1038 57.4508 11.1038 57.9249C11.1038 58.0835 11.0078 58.0712 10.8533 58.0712C10.4573 58.0712 9.75062 58.0224 9.25992 58.0224C8.82792 58.0224 8.36121 58.0712 7.75055 58.0712C7.58274 58.0712 7.51041 58.0224 7.51041 57.9371C7.51041 57.5104 8.38517 57.8396 8.38517 56.6584V54.4679C8.38517 53.9558 8.42289 53.8231 7.89312 53.8231H4.69584C4.14384 53.8231 4.10782 53.9436 4.10782 54.4801V56.3914C4.10782 57.9005 5.5932 57.4616 5.5932 57.9005C5.5932 57.9735 5.61584 58.0712 5.23448 58.0712C4.74379 58.0712 4.34788 58.0224 3.48521 58.0224C2.98257 58.0224 2.47855 58.0712 1.87988 58.0712C1.73588 58.0712 1.61713 58.0481 1.61713 57.8884C1.61713 57.4007 2.63444 57.8395 2.63444 56.3305V50.901C2.63444 49.5747 1.28125 50.1113 1.28125 49.648C1.28125 49.4664 1.64103 49.4539 1.86788 49.4539C2.22769 49.4539 2.58646 49.5013 3.21046 49.5013C3.92778 49.5013 4.40779 49.4539 4.75581 49.4539C4.92249 49.4539 5.03056 49.5135 5.03056 49.6356C5.03056 50.0134 4.10782 49.6586 4.10782 50.7437V52.6782C4.10782 53.0073 4.15585 53.166 4.40794 53.166H7.96532C8.31341 53.166 8.3854 52.8856 8.3854 52.6187V50.901C8.3854 49.5625 7.06658 50.0013 7.06658 49.6478C7.06658 49.4296 7.17603 49.4539 7.3427 49.4539C7.83469 49.4539 8.14515 49.5013 8.88783 49.5013C9.5105 49.5013 9.95451 49.4539 10.4692 49.4539C10.6733 49.4539 10.7213 49.4924 10.7213 49.5988C10.7213 50.0621 9.85878 49.5377 9.85878 50.7313L9.85854 56.3548Z" fill="#A2A2A2"/>
<path d="M12.3145 55.0884C12.0987 55.0884 12.0506 55.0031 12.0506 55.3917C12.0506 56.4389 12.7825 57.3886 13.8238 57.3886C14.5305 57.3886 15.1172 56.7436 15.3092 56.7436C15.3572 56.7436 15.4292 56.755 15.4292 56.8898C15.4292 57.1932 14.4223 58.1552 13.189 58.1552C12.0023 58.1552 10.8291 57.3886 10.8291 55.721C10.8291 54.3216 11.6077 52.7988 13.153 52.7988C14.7583 52.7988 15.4052 54.1874 15.4052 54.8201C15.4052 55.0885 15.3332 55.0884 15.2622 55.0884H12.3145ZM13.8358 54.6616C14.0399 54.6616 14.1117 54.6732 14.1117 54.3337C14.1117 53.8718 13.7757 53.1525 13.0211 53.1525C12.3024 53.1525 12.0383 53.8718 12.0383 54.4312C12.0383 54.6248 12.0611 54.6616 12.0986 54.6616H13.8358Z" fill="#A2A2A2"/>
<path d="M19.8972 56.6822C19.8972 57.2905 19.9085 57.4369 20.2211 57.4369C20.364 57.4369 20.5197 57.3757 20.6038 57.3757C20.6877 57.3757 20.7358 57.4246 20.7358 57.4856C20.7358 57.728 20.0051 58.1548 19.5731 58.1548C19.0104 58.1548 18.8423 57.6685 18.7957 57.4125C18.2917 57.8257 17.5851 58.1548 16.9265 58.1548C16.2678 58.1548 15.7998 57.6807 15.7998 57.0115C15.7998 55.5146 17.3931 55.3073 18.6278 54.9903C18.6278 53.9431 18.5438 53.2022 17.5971 53.2022C17.1424 53.2022 17.045 53.3227 17.045 53.8836C17.045 54.4552 16.2796 54.4552 16.1957 54.4552C16.0997 54.4552 15.884 54.4321 15.884 54.199C15.884 53.141 17.2373 52.7998 18.076 52.7998C19.3106 52.7998 19.8972 53.3592 19.8972 54.5878V56.6822ZM18.628 55.8425C18.628 55.5145 18.6506 55.4035 18.544 55.4035C18.076 55.4035 17.1306 55.818 17.1306 56.6335C17.1306 56.8285 17.1421 57.4369 17.7655 57.4369C18.0281 57.4369 18.628 57.3029 18.628 57.0237V55.8425Z" fill="#A2A2A2"/>
<path d="M21.6111 50.5485C21.6111 49.8306 20.8203 50.2193 20.8203 49.867C20.8203 49.6596 21.0003 49.7085 21.767 49.4404C22.6897 49.1735 22.6523 48.9541 22.8563 48.9541C23.0124 48.9541 22.8789 49.2955 22.8789 49.9769V56.9507C22.8789 57.815 23.7657 57.6441 23.7657 57.9124C23.7657 58.0345 23.7177 58.071 23.5152 58.071C23.2752 58.071 22.5324 58.0223 22.1724 58.0223C21.8976 58.0223 21.3579 58.071 21.1059 58.071C21.0114 58.071 20.9031 58.0711 20.9031 57.9494C20.9031 57.5715 21.6099 58.0592 21.6099 56.9144L21.6111 50.5485Z" fill="#A2A2A2"/>
<path d="M24.6777 53.6276H24.3058C24.0791 53.6276 23.9951 53.518 23.9951 53.445C23.9951 53.1782 24.1977 53.1415 24.5338 52.8244C25.4324 51.9601 25.6006 51.3994 25.8032 51.3994C25.8992 51.3994 25.9472 51.4847 25.9472 51.5335V52.8366C25.9472 52.9583 26.0789 52.9582 26.2108 52.9582H27.0376C27.3124 52.9582 27.2418 52.6899 27.4203 52.6899C27.4683 52.6899 27.4921 52.7283 27.4921 52.7752C27.4921 52.8604 27.3722 53.1289 27.3359 53.2264C27.2531 53.3957 27.2532 53.615 27.0971 53.615H25.9465V56.7917C25.9465 57.217 26.0304 57.4608 26.4985 57.4608C27.0972 57.4608 27.3238 57.1683 27.4558 57.1683C27.5397 57.1683 27.5878 57.2067 27.5878 57.3511C27.5878 57.5585 26.9049 58.1557 25.9223 58.1557C24.5569 58.1557 24.677 57.1073 24.677 56.7917L24.6777 53.6276Z" fill="#A2A2A2"/>
<path d="M33.1237 57.036C33.1237 57.8623 33.8665 57.5345 33.8665 57.9599C33.8665 58.0329 33.8063 58.0698 33.7583 58.0698C33.3277 58.0698 32.8836 58.0211 32.4529 58.0211C32.1528 58.0211 31.8664 58.0698 31.4584 58.0698C31.3983 58.0698 31.2662 58.1081 31.2662 57.9479C31.2662 57.7164 31.8543 57.681 31.8543 57.0119V55.2346C31.8543 54.4191 31.6865 53.567 30.6796 53.567C30.381 53.567 30.0811 53.7257 29.8651 53.9085C29.6852 54.0656 29.6372 54.0779 29.6372 54.3095V56.9387C29.6372 57.7773 30.5837 57.5835 30.5837 57.9236C30.5837 58.1186 30.3811 58.0701 30.045 58.0701C29.649 58.0701 29.4344 58.0213 28.8224 58.0213C28.4637 58.0213 28.3318 58.0701 28.0918 58.0701C27.9958 58.0701 27.7331 58.0815 27.7331 57.936C27.7331 57.6203 28.3677 57.7544 28.3677 57.2303V50.549C28.3677 49.831 27.5771 50.22 27.5771 49.8677C27.5771 49.6603 27.7569 49.709 28.5236 49.4409C29.4463 49.1728 29.4105 48.9531 29.6132 48.9531C29.7693 48.9531 29.6358 49.2946 29.6358 49.9773V53.6891H29.6584C30.0544 53.1784 30.653 52.8004 31.3117 52.8004C32.4744 52.8004 33.1212 53.5061 33.1212 54.9177L33.1237 57.036Z" fill="#A2A2A2"/>
<path d="M45.0318 52.0691C45.0431 52.1908 45.0919 52.4715 44.8878 52.4715C44.6958 52.4715 44.6119 52.2152 44.5291 52.0569C43.9305 50.8891 42.8759 49.8298 41.4852 49.8298C39.7252 49.8298 38.7544 51.534 38.7544 53.165C38.7544 54.8813 39.713 57.2914 42.001 57.2914C43.8584 57.2914 44.6718 55.6969 44.9838 55.6969C45.0439 55.6969 45.152 55.758 45.152 55.8298C45.152 56.3175 43.8827 58.1558 41.3307 58.1558C37.82 58.1558 37.2812 55.0399 37.2812 54.0781C37.2812 52.0326 38.5145 49.3438 41.5332 49.3438C42.9839 49.3438 43.9066 50.086 44.2652 50.086C44.4931 50.086 44.5052 49.6836 44.6719 49.6836C44.732 49.6836 44.8161 49.6953 44.8161 49.7567L45.0318 52.0691Z" fill="#A2A2A2"/>
<path d="M49.5 56.6822C49.5 57.2905 49.5113 57.4369 49.8239 57.4369C49.9664 57.4369 50.1225 57.3757 50.2066 57.3757C50.2905 57.3757 50.3383 57.4246 50.3383 57.4856C50.3383 57.728 49.6076 58.1548 49.1756 58.1548C48.6129 58.1548 48.4451 57.6685 48.3985 57.4125C47.8945 57.8257 47.1877 58.1548 46.529 58.1548C45.8703 58.1548 45.4023 57.6807 45.4023 57.0115C45.4023 55.5146 46.9956 55.3073 48.2303 54.9903C48.2303 53.9431 48.1464 53.2022 47.1996 53.2022C46.7449 53.2022 46.649 53.3227 46.649 53.8836C46.649 54.4552 45.8824 54.4552 45.7984 54.4552C45.7024 54.4552 45.4865 54.4321 45.4865 54.199C45.4865 53.141 46.8411 52.7998 47.6785 52.7998C48.9132 52.7998 49.5 53.3592 49.5 54.5878V56.6822ZM48.2305 55.8425C48.2305 55.5145 48.2531 55.4035 48.1466 55.4035C47.6786 55.4035 46.7334 55.818 46.7334 56.6335C46.7334 56.8285 46.7447 57.4369 47.368 57.4369C47.6307 57.4369 48.2308 57.3029 48.2308 57.0237L48.2305 55.8425Z" fill="#A2A2A2"/>
<path d="M52.5308 56.7562C52.5308 57.8751 53.6441 57.5107 53.6441 57.8629C53.6441 57.9358 53.5961 58.0701 53.4653 58.0701C53.1773 58.0701 52.4947 58.0213 52.0987 58.0213C51.5361 58.0213 51.1893 58.0701 50.8892 58.0701C50.7332 58.0701 50.6853 58.0471 50.6853 57.9484C50.6853 57.5717 51.2613 57.8874 51.2613 56.988V54.1269C51.2613 53.5431 50.4932 53.8843 50.4932 53.5431C50.4932 53.3481 50.6731 53.3357 51.0932 53.2274C52.0985 52.9959 52.2426 52.7031 52.3866 52.7031C52.5306 52.7031 52.5306 52.7885 52.5306 52.9471V53.8844C53.0572 53.2517 53.4891 52.8009 53.7878 52.8009C54.0879 52.8009 54.7345 53.348 54.7345 53.5797C54.7345 54.0294 54.3279 54.6011 54.1119 54.6011C53.8719 54.6011 53.8117 54.1148 53.1532 54.1148C52.4945 54.1148 52.5306 55.04 52.5306 55.1376L52.5308 56.7562Z" fill="#A2A2A2"/>
<path d="M56.4959 55.0884C56.2801 55.0884 56.2322 55.0031 56.2322 55.3917C56.2322 56.4389 56.9641 57.3886 58.0055 57.3886C58.7122 57.3886 59.3002 56.7436 59.4909 56.7436C59.5389 56.7436 59.6106 56.755 59.6106 56.8898C59.6106 57.1932 58.604 58.1552 57.3706 58.1552C56.184 58.1552 55.0107 57.3886 55.0107 55.721C55.0107 54.3216 55.7893 52.7988 57.3347 52.7988C58.94 52.7988 59.5866 54.1874 59.5866 54.8201C59.5866 55.0885 59.5148 55.0884 59.4426 55.0884H56.4959ZM58.0172 54.6616C58.2213 54.6616 58.2931 54.6732 58.2931 54.3337C58.2931 53.8718 57.9571 53.1525 57.2025 53.1525C56.4838 53.1525 56.22 53.8718 56.22 54.4312C56.22 54.6248 56.2425 54.6616 56.28 54.6616H58.0172Z" fill="#A2A2A2"/>
<path d="M63.4563 55.5751C63.4185 55.4042 63.3001 55.0522 63.6002 55.0522C63.7922 55.0522 63.8164 55.1621 63.8644 55.3191C64.247 56.4868 64.9897 57.5963 66.3191 57.5963C67.2538 57.5963 67.9724 57.011 67.9724 56.037C67.9724 55.0034 67.2178 54.8449 65.2898 53.9806C64.2591 53.5173 63.5523 53.0432 63.5523 51.7658C63.5523 50.3651 64.511 49.3438 65.9124 49.3438C66.895 49.3438 67.3976 49.8179 67.7576 49.8179C67.9137 49.8179 68.2123 49.6227 68.3682 49.6227C68.5481 49.6227 68.5125 49.8055 68.5366 50.086L68.6672 51.717C68.6899 51.9851 68.6559 52.1302 68.3925 52.1302C68.1166 52.1302 67.9366 49.8666 65.8766 49.8666C65.0859 49.8666 64.5458 50.3285 64.5458 51.144C64.5458 51.9609 65.2058 52.118 66.8111 52.8359C68.0925 53.4076 68.8831 53.9319 68.8831 55.4776C68.8831 57.072 67.7818 58.1558 66.2111 58.1558C65.4805 58.1558 64.87 57.8631 64.1753 57.706C63.8767 57.633 63.8887 57.5354 63.8286 57.2426L63.4563 55.5751Z" fill="#A2A2A2"/>
<path d="M70.8477 55.0884C70.6319 55.0884 70.5838 55.0031 70.5838 55.3917C70.5838 56.4389 71.3157 57.3886 72.357 57.3886C73.0637 57.3886 73.6504 56.7436 73.8424 56.7436C73.8904 56.7436 73.9621 56.755 73.9621 56.8898C73.9621 57.1932 72.9555 58.1552 71.7222 58.1552C70.5355 58.1552 69.3623 57.3886 69.3623 55.721C69.3623 54.3216 70.1409 52.7988 71.6862 52.7988C73.2915 52.7988 73.9382 54.1874 73.9382 54.8201C73.9382 55.0885 73.8664 55.0884 73.7942 55.0884H70.8477ZM72.3688 54.6616C72.5729 54.6616 72.6447 54.6732 72.6447 54.3337C72.6447 53.8718 72.3089 53.1525 71.5543 53.1525C70.8356 53.1525 70.5716 53.8718 70.5716 54.4312C70.5716 54.6248 70.5941 54.6616 70.6315 54.6616H72.3688Z" fill="#A2A2A2"/>
<path d="M76.1431 56.7562C76.1431 57.8751 77.2564 57.5107 77.2564 57.8629C77.2564 57.9358 77.2084 58.0701 77.0776 58.0701C76.7896 58.0701 76.107 58.0213 75.711 58.0213C75.1484 58.0213 74.8016 58.0701 74.5016 58.0701C74.3455 58.0701 74.2976 58.0471 74.2976 57.9484C74.2976 57.5717 74.8734 57.8874 74.8734 56.988V54.1269C74.8734 53.5431 74.1055 53.8843 74.1055 53.5431C74.1055 53.3481 74.2854 53.3357 74.7055 53.2274C75.7108 52.9959 75.8549 52.7031 75.9989 52.7031C76.1429 52.7031 76.1429 52.7885 76.1429 52.9471V53.8844C76.6695 53.2517 77.1001 52.8009 77.4001 52.8009C77.7002 52.8009 78.3468 53.348 78.3468 53.5797C78.3468 54.0294 77.9402 54.6011 77.7242 54.6011C77.4842 54.6011 77.424 54.1148 76.7655 54.1148C76.1068 54.1148 76.1429 55.04 76.1429 55.1376L76.1431 56.7562Z" fill="#A2A2A2"/>
<path d="M81.4987 56.2321C81.5214 56.2705 81.5815 56.4866 81.6775 56.4866C81.7493 56.4866 81.8563 56.2439 81.8816 56.1955L82.6002 54.7473C82.7321 54.4912 82.9363 54.0523 82.9363 53.8098C82.9363 53.226 82.1681 53.4685 82.1681 53.1407C82.1681 52.9456 82.3001 52.9335 82.5522 52.9335C82.8043 52.9335 83.0561 52.9822 83.2948 52.9822C83.4747 52.9822 83.6546 52.9335 83.8948 52.9335C84.0373 52.9335 84.1455 52.9565 84.1455 53.0797C84.1455 53.3101 83.811 53.2855 83.6189 53.6879L81.4269 58.0337C81.3551 58.18 81.343 58.2653 81.2228 58.2653C81.1147 58.2653 81.0908 58.1677 81.0428 58.0578L79.0654 53.8583C78.7427 53.177 78.4082 53.3464 78.4082 53.0917C78.4082 52.9331 78.6229 52.933 78.9349 52.933C79.1854 52.933 79.3296 52.9818 79.7736 52.9818C80.0722 52.9818 80.5402 52.933 80.7909 52.933C80.9107 52.933 81.1628 52.8946 81.1628 53.0793C81.1628 53.4072 80.264 53.2622 80.468 53.7486L81.4987 56.2321Z" fill="#A2A2A2"/>
<path d="M85.0445 54.1266C85.0445 53.5428 84.2764 53.884 84.2764 53.5428C84.2764 53.3477 84.4563 53.3354 84.8764 53.2271C85.8831 52.9955 86.0258 52.7028 86.1698 52.7028C86.3153 52.7028 86.3154 52.788 86.3154 52.9466V57.0486C86.3154 57.8262 87.1885 57.4984 87.1885 57.9115C87.1885 58.1066 86.8406 58.07 86.6967 58.07C86.3154 58.07 85.9419 58.0212 85.5592 58.0212C85.2712 58.0212 84.9727 58.07 84.6727 58.07C84.4686 58.07 84.3366 58.1085 84.3366 57.8996C84.3366 57.5962 85.0445 57.8021 85.0445 57.2426V54.1266ZM85.6912 51.7775C85.4992 51.7775 84.9004 50.9988 84.9004 50.8159C84.9004 50.6342 85.4992 49.8418 85.6912 49.8418C85.8937 49.8418 86.4817 50.6343 86.4817 50.8159C86.4817 50.9986 85.8938 51.7775 85.6912 51.7775Z" fill="#A2A2A2"/>
<path d="M90.2551 52.7998C90.6618 52.7998 91.7645 53.0073 91.7645 53.7129C91.7645 53.931 91.0819 54.4552 90.8779 54.4552C90.7698 54.4552 90.746 54.3576 90.7218 54.2724C90.5778 53.6885 90.3752 53.2754 89.7284 53.2754C88.8058 53.2754 88.6018 54.1505 88.6018 54.9064C88.6018 56.0741 89.2377 57.3896 90.3631 57.3896C91.0697 57.3896 91.6564 56.7434 91.8484 56.7434C91.8964 56.7434 91.9682 56.7549 91.9682 56.8896C91.9682 57.1945 90.9615 58.1562 89.7282 58.1562C88.3616 58.1562 87.4043 57.1089 87.4043 55.7217C87.4043 54.0894 88.6378 52.7998 90.2551 52.7998Z" fill="#A2A2A2"/>
<path d="M94.0293 55.0884C93.8135 55.0884 93.7654 55.0031 93.7654 55.3917C93.7654 56.4389 94.4963 57.3886 95.5389 57.3886C96.2456 57.3886 96.8336 56.7436 97.0243 56.7436C97.0723 56.7436 97.144 56.755 97.144 56.8898C97.144 57.1932 96.1387 58.1552 94.9041 58.1552C93.7187 58.1552 92.5439 57.3886 92.5439 55.721C92.5439 54.3216 93.3228 52.7988 94.8681 52.7988C96.4734 52.7988 97.12 54.1874 97.12 54.8201C97.12 55.0885 97.0483 55.0884 96.9761 55.0884H94.0293ZM95.5507 54.6616C95.7548 54.6616 95.8266 54.6732 95.8266 54.3337C95.8266 53.8718 95.4906 53.1525 94.7359 53.1525C94.0173 53.1525 93.7532 53.8718 93.7532 54.4312C93.7532 54.6248 93.776 54.6616 93.8134 54.6616H95.5507Z" fill="#A2A2A2"/>
<path d="M108.405 52.0691C108.416 52.1908 108.465 52.4715 108.261 52.4715C108.07 52.4715 107.987 52.2152 107.902 52.0569C107.303 50.8891 106.249 49.8298 104.859 49.8298C103.099 49.8298 102.127 51.534 102.127 53.165C102.127 54.8813 103.087 57.2914 105.375 57.2914C107.231 57.2914 108.047 55.6969 108.357 55.6969C108.417 55.6969 108.525 55.758 108.525 55.8298C108.525 56.3175 107.255 58.1558 104.703 58.1558C101.192 58.1558 100.655 55.0399 100.655 54.0781C100.655 52.0326 101.889 49.3438 104.907 49.3438C106.357 49.3438 107.279 50.086 107.638 50.086C107.866 50.086 107.878 49.6836 108.047 49.6836C108.107 49.6836 108.188 49.6953 108.188 49.7567L108.405 52.0691Z" fill="#A2A2A2"/>
<path d="M111.41 58.155C109.962 58.155 108.834 57.1324 108.834 55.6355C108.834 54.041 109.95 52.7988 111.554 52.7988C113.051 52.7988 114.202 53.8093 114.202 55.3427C114.202 56.9995 113.063 58.155 111.41 58.155ZM110.105 54.9419C110.067 55.7453 110.453 57.7284 111.782 57.7284C112.715 57.7284 112.993 57.024 112.993 56.1949C112.993 55.2209 112.643 53.1888 111.35 53.1888C110.309 53.1888 110.141 54.0655 110.105 54.9419Z" fill="#A2A2A2"/>
<path d="M116.334 56.7562C116.334 57.8751 117.447 57.5107 117.447 57.8629C117.447 57.9358 117.402 58.0701 117.27 58.0701C116.982 58.0701 116.298 58.0213 115.905 58.0213C115.341 58.0213 114.993 58.0701 114.694 58.0701C114.538 58.0701 114.49 58.0471 114.49 57.9484C114.49 57.5717 115.064 57.8874 115.064 56.988V54.1269C115.064 53.5431 114.298 53.8843 114.298 53.5431C114.298 53.3481 114.478 53.3357 114.898 53.2274C115.905 52.9959 116.048 52.7031 116.192 52.7031C116.334 52.7031 116.334 52.7885 116.334 52.9471V53.8844C116.862 53.2517 117.294 52.8009 117.591 52.8009C117.891 52.8009 118.539 53.348 118.539 53.5797C118.539 54.0294 118.131 54.6011 117.915 54.6011C117.677 54.6011 117.615 54.1148 116.958 54.1148C116.298 54.1148 116.334 55.04 116.334 55.1376V56.7562Z" fill="#A2A2A2"/>
<path d="M120.564 59.421C120.564 60.2961 121.545 59.9561 121.545 60.3327C121.545 60.4056 121.508 60.4913 121.293 60.4913C120.852 60.4913 120.684 60.4426 120.216 60.4426C119.463 60.4426 119.27 60.4913 119.066 60.4913C118.909 60.4913 118.791 60.5028 118.791 60.3085C118.791 60.0417 119.293 60.2003 119.293 59.7369V54.4063C119.293 53.5054 118.552 54.0406 118.552 53.615C118.552 53.2859 119.127 53.4811 120.252 52.7875C120.312 52.7491 120.372 52.7021 120.456 52.7021C120.588 52.7021 120.564 52.9583 120.564 53.0312V53.6394C120.972 53.1653 121.533 52.7996 122.169 52.7996C123.488 52.7996 124.085 53.9077 124.085 55.0389C124.085 56.5358 123.392 58.156 121.473 58.156C121.2 58.156 120.828 58.0585 120.564 57.9245V59.421ZM120.564 56.9746C120.564 57.013 120.996 57.7168 121.797 57.7168C122.768 57.7168 123.032 56.7794 123.032 55.9639C123.032 55.1241 122.576 53.6516 121.449 53.6516C121.128 53.6516 120.78 53.8467 120.564 54.0892V56.9746Z" fill="#A2A2A2"/>
<path d="M127.094 58.155C125.644 58.155 124.518 57.1324 124.518 55.6355C124.518 54.041 125.632 52.7988 127.238 52.7988C128.736 52.7988 129.886 53.8093 129.886 55.3427C129.886 56.9995 128.747 58.155 127.094 58.155ZM125.788 54.9419C125.75 55.7453 126.136 57.7284 127.465 57.7284C128.399 57.7284 128.675 57.024 128.675 56.1949C128.675 55.2209 128.327 53.1888 127.034 53.1888C125.992 53.1888 125.824 54.0655 125.788 54.9419Z" fill="#A2A2A2"/>
<path d="M132.257 56.7562C132.257 57.8751 133.37 57.5107 133.37 57.8629C133.37 57.9358 133.322 58.0701 133.19 58.0701C132.902 58.0701 132.221 58.0213 131.825 58.0213C131.264 58.0213 130.916 58.0701 130.616 58.0701C130.46 58.0701 130.411 58.0471 130.411 57.9484C130.411 57.5717 130.987 57.8874 130.987 56.988V54.1269C130.987 53.5431 130.221 53.8843 130.221 53.5431C130.221 53.3481 130.4 53.3357 130.82 53.2274C131.825 52.9959 131.969 52.7031 132.113 52.7031C132.257 52.7031 132.257 52.7885 132.257 52.9471V53.8844C132.783 53.2517 133.216 52.8009 133.514 52.8009C133.814 52.8009 134.461 53.348 134.461 53.5797C134.461 54.0294 134.053 54.6011 133.838 54.6011C133.598 54.6011 133.538 54.1148 132.878 54.1148C132.221 54.1148 132.257 55.04 132.257 55.1376V56.7562Z" fill="#A2A2A2"/>
<path d="M138.727 56.6822C138.727 57.2905 138.738 57.4369 139.048 57.4369C139.192 57.4369 139.348 57.3757 139.432 57.3757C139.516 57.3757 139.564 57.4246 139.564 57.4856C139.564 57.728 138.834 58.1548 138.402 58.1548C137.838 58.1548 137.673 57.6685 137.625 57.4125C137.121 57.8257 136.414 58.1548 135.754 58.1548C135.097 58.1548 134.629 57.6807 134.629 57.0115C134.629 55.5146 136.222 55.3073 137.457 54.9903C137.457 53.9431 137.373 53.2022 136.426 53.2022C135.97 53.2022 135.874 53.3227 135.874 53.8836C135.874 54.4552 135.109 54.4552 135.025 54.4552C134.929 54.4552 134.713 54.4321 134.713 54.199C134.713 53.141 136.066 52.7998 136.905 52.7998C138.138 52.7998 138.726 53.3592 138.726 54.5878L138.727 56.6822ZM137.457 55.8425C137.457 55.5145 137.48 55.4035 137.373 55.4035C136.905 55.4035 135.959 55.818 135.959 56.6335C135.959 56.8285 135.97 57.4369 136.593 57.4369C136.857 57.4369 137.457 57.3029 137.457 57.0237L137.457 55.8425Z" fill="#A2A2A2"/>
<path d="M140.415 53.6276H140.043C139.815 53.6276 139.733 53.518 139.733 53.445C139.733 53.1782 139.935 53.1415 140.271 52.8244C141.168 51.9601 141.336 51.3994 141.54 51.3994C141.636 51.3994 141.684 51.4847 141.684 51.5335V52.8366C141.684 52.9583 141.816 52.9582 141.948 52.9582H142.775C143.051 52.9582 142.979 52.6899 143.159 52.6899C143.207 52.6899 143.231 52.7283 143.231 52.7752C143.231 52.8604 143.111 53.1289 143.074 53.2264C142.99 53.3957 142.99 53.615 142.834 53.615H141.684V56.7917C141.684 57.217 141.768 57.4608 142.236 57.4608C142.834 57.4608 143.062 57.1683 143.194 57.1683C143.278 57.1683 143.326 57.2067 143.326 57.3511C143.326 57.5585 142.642 58.1557 141.66 58.1557C140.294 58.1557 140.414 57.1073 140.414 56.7917L140.415 53.6276Z" fill="#A2A2A2"/>
<path d="M144.236 54.1266C144.236 53.5428 143.471 53.884 143.471 53.5428C143.471 53.3477 143.648 53.3354 144.068 53.2271C145.075 52.9955 145.217 52.7028 145.361 52.7028C145.505 52.7028 145.505 52.788 145.505 52.9466V57.0486C145.505 57.8262 146.38 57.4984 146.38 57.9115C146.38 58.1066 146.032 58.07 145.889 58.07C145.505 58.07 145.133 58.0212 144.751 58.0212C144.464 58.0212 144.164 58.07 143.864 58.07C143.66 58.07 143.528 58.1085 143.528 57.8996C143.528 57.5962 144.236 57.8021 144.236 57.2426V54.1266ZM144.883 51.7775C144.692 51.7775 144.092 50.9988 144.092 50.8159C144.092 50.6342 144.692 49.8418 144.883 49.8418C145.085 49.8418 145.673 50.6343 145.673 50.8159C145.673 50.9986 145.085 51.7775 144.883 51.7775Z" fill="#A2A2A2"/>
<path d="M148.944 58.155C147.496 58.155 146.368 57.1324 146.368 55.6355C146.368 54.041 147.484 52.7988 149.088 52.7988C150.585 52.7988 151.736 53.8093 151.736 55.3427C151.736 56.9995 150.598 58.155 148.944 58.155ZM147.639 54.9419C147.601 55.7453 147.986 57.7284 149.316 57.7284C150.25 57.7284 150.526 57.024 150.526 56.1949C150.526 55.2209 150.177 53.1888 148.884 53.1888C147.843 53.1888 147.675 54.0655 147.639 54.9419Z" fill="#A2A2A2"/>
<path d="M152.754 54.126C152.754 53.5421 151.987 53.8833 151.987 53.5421C151.987 53.3471 152.166 53.3347 152.586 53.2264C153.591 52.9949 153.735 52.7021 153.879 52.7021C154.023 52.7021 154.023 52.7873 154.023 52.9459V53.6396H154.046C154.37 53.1046 154.969 52.7996 155.677 52.7996C156.97 52.7996 157.497 53.8833 157.497 55.0632V57.0357C157.497 57.8011 158.24 57.6196 158.24 57.8865C158.24 58.0328 158.169 58.0691 157.965 58.0691C157.581 58.0691 157.197 58.0203 156.946 58.0203C156.646 58.0203 156.214 58.0691 156.07 58.0691C155.842 58.0691 155.677 58.1303 155.677 57.9106C155.677 57.7048 156.226 57.5949 156.226 57.1438V55.0754C156.226 54.2843 155.95 53.5907 155.053 53.5907C154.262 53.5907 154.022 54.0525 154.022 54.7583V57.0111C154.022 57.7047 154.993 57.595 154.993 57.8863C154.993 57.9961 154.909 58.0691 154.621 58.0691C154.49 58.0691 154.058 58.0203 153.446 58.0203C153.029 58.0203 152.609 58.0691 152.249 58.0691C152.129 58.0691 152.117 57.9961 152.117 57.935C152.117 57.5829 152.753 57.912 152.753 56.9014L152.754 54.126Z" fill="#A2A2A2"/>
</g>
<defs>
<clipPath id="clip0_1417_3180">
<rect width="159.201" height="61" fill="white" transform="translate(0.399414)"/>
</clipPath>
</defs>
</svg>
