<?xml version="1.0" encoding="UTF-8" standalone="no"?>
<!-- Created with Inkscape (http://www.inkscape.org/) -->

<svg
   xmlns:dc="http://purl.org/dc/elements/1.1/"
   xmlns:cc="http://creativecommons.org/ns#"
   xmlns:rdf="http://www.w3.org/1999/02/22-rdf-syntax-ns#"
   xmlns:svg="http://www.w3.org/2000/svg"
   xmlns="http://www.w3.org/2000/svg"
   xmlns:sodipodi="http://sodipodi.sourceforge.net/DTD/sodipodi-0.dtd"
   xmlns:inkscape="http://www.inkscape.org/namespaces/inkscape"
   width="159.20135"
   height="60.039558"
   viewBox="0 0 42.122024 15.885466"
   version="1.1"
   id="svg3175"
   inkscape:version="0.92.0 r15299"
   sodipodi:docname="hcsc.svg">
  <defs
     id="defs3169" />
  <sodipodi:namedview
     id="base"
     pagecolor="#ffffff"
     bordercolor="#666666"
     borderopacity="1.0"
     inkscape:pageopacity="0.0"
     inkscape:pageshadow="2"
     inkscape:zoom="5.6699893"
     inkscape:cx="79.100678"
     inkscape:cy="29.51978"
     inkscape:document-units="mm"
     inkscape:current-layer="layer1"
     showgrid="false"
     fit-margin-top="0"
     fit-margin-left="0"
     fit-margin-right="0"
     fit-margin-bottom="0"
     units="px"
     inkscape:window-width="1280"
     inkscape:window-height="744"
     inkscape:window-x="-4"
     inkscape:window-y="-4"
     inkscape:window-maximized="1" />
  <metadata
     id="metadata3172">
    <rdf:RDF>
      <cc:Work
         rdf:about="">
        <dc:format>image/svg+xml</dc:format>
        <dc:type
           rdf:resource="http://purl.org/dc/dcmitype/StillImage" />
        <dc:title></dc:title>
      </cc:Work>
    </rdf:RDF>
  </metadata>
  <g
     inkscape:label="Layer 1"
     inkscape:groupmode="layer"
     id="layer1"
     transform="translate(8.45551,-140.75831)">
    <g
       transform="translate(-734.39835,-383.22261)"
       id="g3167">
      <path
         d="m 727.41039,525.57138 c -0.0152,-1.12042 -1.33526,-0.81351 -1.33526,-1.15111 0,-0.13829 0.12276,-0.16898 0.24553,-0.16863 0.56797,0 1.12042,0.061 1.68839,0.061 0.4759,0 0.95145,-0.061 1.42734,-0.0614 0.26106,0 0.29175,0.0924 0.29175,0.15381 0,0.30656 -1.10525,0.0152 -1.10525,1.16628 v 3.31541 c 0,0.21484 0,0.27622 0.23036,0.27622 h 5.61763 c 0.15346,0 0.12277,-0.38382 0.12277,-0.44521 v -3.14642 c 0,-1.05904 -1.15111,-0.79834 -1.15111,-1.15111 0,-0.0921 0.0307,-0.16898 0.2607,-0.16863 0.50659,0 1.30457,0.061 1.59632,0.061 0.56797,0 0.79834,-0.061 1.10525,-0.0614 0.39899,0 0.42969,0.15381 0.42969,0.24553 0,0.27622 -1.02835,0.0155 -1.02835,1.07456 v 8.1347 c 0,1.12078 1.39665,0.84455 1.39665,1.22802 0,0.0462 -0.0614,0.18415 -0.16863,0.18415 -0.41452,0 -0.89041,-0.0614 -1.44286,-0.0614 -0.98249,0 -1.41217,0.0614 -1.70357,0.0614 -0.13829,0 -0.36865,0.0462 -0.36865,-0.19932 0,-0.3683 1.07456,-0.15346 1.07456,-1.12042 v -3.68371 c 0,-0.24588 0.0614,-0.38382 -0.12277,-0.38382 h -5.66384 c -0.18415,0 -0.18415,0.0921 -0.18415,0.26071 v 3.82199 c 0,1.04387 1.45803,0.70626 1.45803,1.18181 0,0.0769 -0.10725,0.12276 -0.24554,0.12276 -0.19932,0 -1.31974,-0.0614 -2.13324,-0.0614 -1.08973,0 -1.25871,0.0614 -1.3201,0.0614 -0.12276,0 -0.16898,-0.0765 -0.16898,-0.23001 0,-0.4452 1.19733,0.0614 1.19733,-1.45838 z"
         style="fill:#211e1e;fill-opacity:1;fill-rule:nonzero;stroke:none;stroke-width:0.35277778"
         id="path2669"
         inkscape:connector-curvature="0" />
      <path
         d="m 743.52661,524.11324 c 2.88537,0 3.68371,1.18181 4.12891,1.18181 0.12277,0 0.21484,-0.15346 0.3683,-0.15346 0.16863,0 0.16863,0.24553 0.21484,1.24319 0.0307,0.8135 0.16863,1.32009 -0.0921,1.32009 -0.18415,0 -0.29175,-0.39934 -0.35313,-0.50659 -0.95144,-1.64218 -2.04118,-2.63983 -4.02132,-2.63983 -2.99296,0 -4.43582,1.99531 -4.43582,4.84998 0,2.67088 1.53493,5.34141 4.48168,5.34141 2.40983,0 3.91407,-1.53493 4.14444,-2.24084 0.0307,-0.10725 0.12276,-0.19932 0.21484,-0.19932 0.0765,0 0.15346,0.0921 0.13794,0.16863 l -0.35278,1.53493 c -0.0155,0.0614 -1.10526,1.2125 -4.5586,1.2125 -3.14677,0 -5.40279,-2.16429 -5.40279,-5.34141 0,-3.17712 2.28671,-5.77109 5.52556,-5.77109"
         style="fill:#211e1e;fill-opacity:1;fill-rule:nonzero;stroke:none;stroke-width:0.35277778"
         id="path2673"
         inkscape:connector-curvature="0" />
      <path
         d="m 749.23622,532.40172 c -0.0617,-0.30727 0.0152,-0.4759 0.16863,-0.4759 0.21484,0 0.21484,0.18415 0.29174,0.50659 0.18415,0.70591 1.1049,2.30223 3.22298,2.30223 1.45839,0 2.88608,-0.81351 2.88608,-2.42499 0,-2.96263 -6.23182,-1.30493 -6.23182,-5.31072 0,-1.94945 1.64218,-2.88572 3.40713,-2.88572 1.85737,0 2.36361,0.55245 2.57915,0.55245 0.13794,0 0.16863,-0.16863 0.32209,-0.16863 0.0921,0 0.16898,0.0459 0.18415,0.21484 l 0.23036,2.08739 c 0.0152,0.12276 -0.0155,0.23036 -0.16898,0.23036 -0.16862,0 -0.27622,-0.32244 -0.32208,-0.46037 -0.46108,-1.3201 -1.58115,-1.99567 -2.93194,-1.99567 -1.2125,0 -2.50155,0.5835 -2.50155,1.99567 0,2.88536 6.23147,1.19697 6.23147,5.43313 0,1.2894 -0.90558,3.22333 -4.38997,3.22333 -1.13594,0 -2.53259,-0.56762 -2.59397,-0.84385 z"
         style="fill:#211e1e;fill-opacity:1;fill-rule:nonzero;stroke:none;stroke-width:0.35277778"
         id="path2677"
         inkscape:connector-curvature="0" />
      <path
         d="m 763.14198,524.11324 c 2.88537,0 3.68335,1.18181 4.12891,1.18181 0.12277,0 0.21484,-0.15346 0.3683,-0.15346 0.16863,0 0.16863,0.24553 0.21484,1.24319 0.0307,0.8135 0.16863,1.32009 -0.0921,1.32009 -0.18415,0 -0.29175,-0.39934 -0.35313,-0.50659 -0.9518,-1.64218 -2.04118,-2.63983 -4.02132,-2.63983 -2.99332,0 -4.43582,1.99531 -4.43582,4.84998 0,2.67088 1.53458,5.34141 4.48168,5.34141 2.40983,0 3.91407,-1.53493 4.14444,-2.24084 0.0307,-0.10725 0.12276,-0.19932 0.21484,-0.19932 0.0765,0 0.15346,0.0921 0.13794,0.16863 l -0.35278,1.53493 c -0.0155,0.0614 -1.10561,1.2125 -4.5586,1.2125 -3.14677,0 -5.40314,-2.16429 -5.40314,-5.34141 0,-3.17712 2.28706,-5.77109 5.52591,-5.77109"
         style="fill:#211e1e;fill-opacity:1;fill-rule:nonzero;stroke:none;stroke-width:0.35277778"
         id="path2681"
         inkscape:connector-curvature="0" />
      <path
         d="m 728.44565,538.65661 c 0,0.40252 0.32949,0.2854 0.32949,0.40887 0,0.0413 -0.0254,0.0381 -0.0663,0.0381 -0.10477,0 -0.29174,-0.0127 -0.42157,-0.0127 -0.1143,0 -0.23777,0.0127 -0.39934,0.0127 -0.0444,0 -0.0635,-0.0127 -0.0635,-0.0349 0,-0.11112 0.23142,-0.0254 0.23142,-0.33302 v -0.57044 c 0,-0.13335 0.01,-0.16792 -0.13017,-0.16792 h -0.84597 c -0.14605,0 -0.15557,0.0314 -0.15557,0.1711 v 0.49776 c 0,0.393 0.39299,0.2787 0.39299,0.393 0,0.019 0.006,0.0444 -0.0949,0.0444 -0.12983,0 -0.2346,-0.0127 -0.46285,-0.0127 -0.13299,0 -0.26634,0.0127 -0.42474,0.0127 -0.0381,0 -0.0695,-0.006 -0.0695,-0.0476 0,-0.127 0.26917,-0.0127 0.26917,-0.40569 v -1.41393 c 0,-0.34537 -0.35807,-0.20567 -0.35807,-0.32632 0,-0.0473 0.0952,-0.0505 0.15522,-0.0505 0.0952,0 0.19015,0.0123 0.35525,0.0123 0.18979,0 0.31679,-0.0123 0.40887,-0.0123 0.0441,0 0.0727,0.0155 0.0727,0.0473 0,0.0984 -0.24412,0.006 -0.24412,0.28857 v 0.50377 c 0,0.0857 0.0127,0.127 0.0794,0.127 h 0.94122 c 0.0921,0 0.11112,-0.073 0.11112,-0.14252 v -0.44732 c 0,-0.34855 -0.3489,-0.23425 -0.3489,-0.32632 0,-0.0568 0.0289,-0.0505 0.073,-0.0505 0.13017,0 0.21237,0.0123 0.40887,0.0123 0.16475,0 0.28222,-0.0123 0.41839,-0.0123 0.054,0 0.0667,0.01 0.0667,0.0377 0,0.12065 -0.22825,-0.0159 -0.22825,0.29492 z"
         style="fill:#211e1e;fill-opacity:1;fill-rule:nonzero;stroke:none;stroke-width:0.35277778"
         id="path2685"
         inkscape:connector-curvature="0" />
      <path
         d="m 729.09539,538.32694 c -0.0571,0 -0.0698,-0.0222 -0.0698,0.079 0,0.2727 0.19367,0.52 0.46919,0.52 0.18698,0 0.3422,-0.16793 0.393,-0.16793 0.0127,0 0.0317,0.003 0.0317,0.0381 0,0.079 -0.26635,0.3295 -0.59267,0.3295 -0.31397,0 -0.62441,-0.19967 -0.62441,-0.63394 0,-0.36442 0.20602,-0.76094 0.61489,-0.76094 0.42474,0 0.59584,0.36159 0.59584,0.52634 0,0.0699 -0.019,0.0699 -0.0378,0.0699 z m 0.40252,-0.11112 c 0.054,0 0.073,0.003 0.073,-0.0854 0,-0.12029 -0.0889,-0.30762 -0.28857,-0.30762 -0.19014,0 -0.25999,0.18733 -0.25999,0.33302 0,0.0504 0.006,0.06 0.0159,0.06 z"
         style="fill:#211e1e;fill-opacity:1;fill-rule:nonzero;stroke:none;stroke-width:0.35277778"
         id="path2689"
         inkscape:connector-curvature="0" />
      <path
         d="m 731.10175,538.74209 c 0,0.1584 0.003,0.1965 0.0857,0.1965 0.0378,0 0.079,-0.0159 0.10125,-0.0159 0.0222,0 0.0349,0.0127 0.0349,0.0286 0,0.0631 -0.19333,0.17427 -0.30762,0.17427 -0.14888,0 -0.19333,-0.12665 -0.20567,-0.19332 -0.13335,0.10759 -0.32033,0.19332 -0.4946,0.19332 -0.17427,0 -0.2981,-0.12347 -0.2981,-0.29775 0,-0.38981 0.42157,-0.44379 0.74825,-0.52634 0,-0.2727 -0.0222,-0.46567 -0.2727,-0.46567 -0.1203,0 -0.14605,0.0314 -0.14605,0.17745 0,0.14887 -0.2025,0.14887 -0.22472,0.14887 -0.0254,0 -0.0825,-0.006 -0.0825,-0.0667 0,-0.27552 0.35807,-0.36442 0.57997,-0.36442 0.32667,0 0.48189,0.1457 0.48189,0.46567 z m -0.33584,-0.21872 c 0,-0.0854 0.006,-0.1143 -0.0222,-0.1143 -0.12382,0 -0.37394,0.10795 -0.37394,0.32032 0,0.0508 0.003,0.2092 0.16792,0.2092 0.0695,0 0.22825,-0.0349 0.22825,-0.1076 z"
         style="fill:#211e1e;fill-opacity:1;fill-rule:nonzero;stroke:none;stroke-width:0.35277778"
         id="path2693"
         inkscape:connector-curvature="0" />
      <path
         d="m 731.5551,537.14464 c 0,-0.18697 -0.2092,-0.0857 -0.2092,-0.17745 0,-0.054 0.0476,-0.0413 0.25047,-0.11112 0.24413,-0.0695 0.23425,-0.12665 0.28822,-0.12665 0.0413,0 0.006,0.0889 0.006,0.26635 v 1.8161 c 0,0.22507 0.2346,0.18062 0.2346,0.25047 0,0.0318 -0.0127,0.0413 -0.0663,0.0413 -0.0635,0 -0.26,-0.0127 -0.35525,-0.0127 -0.0727,0 -0.21554,0.0127 -0.28222,0.0127 -0.025,0 -0.0536,0 -0.0536,-0.0317 0,-0.0984 0.18697,0.0286 0.18697,-0.26952 z"
         style="fill:#211e1e;fill-opacity:1;fill-rule:nonzero;stroke:none;stroke-width:0.35277778"
         id="path2697"
         inkscape:connector-curvature="0" />
      <path
         d="m 732.36652,537.9465 h -0.0984 c -0.06,0 -0.0822,-0.0286 -0.0822,-0.0476 0,-0.0695 0.0536,-0.079 0.14252,-0.16158 0.23777,-0.22507 0.28222,-0.37112 0.33584,-0.37112 0.0254,0 0.0381,0.0222 0.0381,0.0349 v 0.33937 c 0,0.0317 0.0349,0.0317 0.0698,0.0317 h 0.21873 c 0.0727,0 0.054,-0.0699 0.10124,-0.0699 0.0127,0 0.019,0.01 0.019,0.0222 0,0.0222 -0.0317,0.0921 -0.0413,0.11748 -0.0219,0.0441 -0.0219,0.10125 -0.0632,0.10125 h -0.30445 v 0.82726 c 0,0.11077 0.0222,0.17427 0.14605,0.17427 0.1584,0 0.21837,-0.0762 0.2533,-0.0762 0.0222,0 0.0349,0.01 0.0349,0.0476 0,0.054 -0.18062,0.20955 -0.44062,0.20955 -0.36124,0 -0.32949,-0.27305 -0.32949,-0.35525 z"
         style="fill:#211e1e;fill-opacity:1;fill-rule:nonzero;stroke:none;stroke-width:0.35277778"
         id="path2701"
         inkscape:connector-curvature="0" />
      <path
         d="m 734.6012,538.83413 c 0,0.21519 0.1965,0.12982 0.1965,0.24059 0,0.019 -0.0159,0.0286 -0.0286,0.0286 -0.11395,0 -0.23142,-0.0127 -0.34537,-0.0127 -0.0794,0 -0.15522,0.0127 -0.26317,0.0127 -0.0159,0 -0.0508,0.01 -0.0508,-0.0317 0,-0.0603 0.15558,-0.0695 0.15558,-0.24377 v -0.46284 c 0,-0.21238 -0.0444,-0.43427 -0.3108,-0.43427 -0.079,0 -0.1584,0.0413 -0.21555,0.0889 -0.0476,0.0409 -0.0603,0.0441 -0.0603,0.10442 v 0.68474 c 0,0.21837 0.25047,0.16792 0.25047,0.25647 0,0.0508 -0.0536,0.0381 -0.14252,0.0381 -0.10478,0 -0.16158,-0.0127 -0.3235,-0.0127 -0.0949,0 -0.12982,0.0127 -0.19332,0.0127 -0.0254,0 -0.0949,0.003 -0.0949,-0.0349 0,-0.0822 0.16792,-0.0473 0.16792,-0.18379 v -1.7399 c 0,-0.18697 -0.2092,-0.0857 -0.2092,-0.17745 0,-0.054 0.0476,-0.0413 0.25048,-0.11112 0.24412,-0.0698 0.23459,-0.127 0.28822,-0.127 0.0413,0 0.006,0.0889 0.006,0.2667 v 0.96661 h 0.006 c 0.10477,-0.133 0.26317,-0.23143 0.43744,-0.23143 0.30762,0 0.47872,0.1838 0.47872,0.5514 z"
         style="fill:#211e1e;fill-opacity:1;fill-rule:nonzero;stroke:none;stroke-width:0.35277778"
         id="path2705"
         inkscape:connector-curvature="0" />
      <path
         d="m 737.75178,537.54067 c 0.003,0.0317 0.0159,0.10477 -0.0381,0.10477 -0.0508,0 -0.073,-0.0667 -0.0949,-0.10794 -0.15839,-0.3041 -0.43744,-0.57997 -0.80539,-0.57997 -0.46567,0 -0.72249,0.44379 -0.72249,0.86854 0,0.44697 0.25365,1.07456 0.85902,1.07456 0.49142,0 0.70661,-0.41522 0.78916,-0.41522 0.0159,0 0.0445,0.0159 0.0445,0.0346 0,0.127 -0.33584,0.60572 -1.01106,0.60572 -0.92886,0 -1.07139,-0.81139 -1.07139,-1.06186 0,-0.53269 0.32632,-1.23296 1.12501,-1.23296 0.38382,0 0.62795,0.19332 0.72284,0.19332 0.0603,0 0.0635,-0.10477 0.1076,-0.10477 0.0159,0 0.0381,0.003 0.0381,0.019 z"
         style="fill:#211e1e;fill-opacity:1;fill-rule:nonzero;stroke:none;stroke-width:0.35277778"
         id="path2709"
         inkscape:connector-curvature="0" />
      <path
         d="m 738.93412,538.74209 c 0,0.1584 0.003,0.1965 0.0857,0.1965 0.0377,0 0.079,-0.0159 0.10125,-0.0159 0.0222,0 0.0349,0.0127 0.0349,0.0286 0,0.0631 -0.19333,0.17427 -0.30762,0.17427 -0.14888,0 -0.19333,-0.12665 -0.20567,-0.19332 -0.13335,0.10759 -0.32033,0.19332 -0.4946,0.19332 -0.17427,0 -0.2981,-0.12347 -0.2981,-0.29775 0,-0.38981 0.42157,-0.44379 0.74825,-0.52634 0,-0.2727 -0.0222,-0.46567 -0.2727,-0.46567 -0.1203,0 -0.1457,0.0314 -0.1457,0.17745 0,0.14887 -0.20285,0.14887 -0.22507,0.14887 -0.0254,0 -0.0825,-0.006 -0.0825,-0.0667 0,-0.27552 0.35842,-0.36442 0.57997,-0.36442 0.32667,0 0.48189,0.1457 0.48189,0.46567 z m -0.33584,-0.21872 c 0,-0.0854 0.006,-0.1143 -0.0222,-0.1143 -0.12382,0 -0.37394,0.10795 -0.37394,0.32032 0,0.0508 0.003,0.2092 0.16792,0.2092 0.0695,0 0.22825,-0.0349 0.22825,-0.1076 z"
         style="fill:#211e1e;fill-opacity:1;fill-rule:nonzero;stroke:none;stroke-width:0.35277778"
         id="path2713"
         inkscape:connector-curvature="0" />
      <path
         d="m 739.73602,538.76114 c 0,0.29139 0.29457,0.1965 0.29457,0.28822 0,0.019 -0.0127,0.054 -0.0473,0.054 -0.0762,0 -0.25682,-0.0127 -0.3616,-0.0127 -0.14887,0 -0.24059,0.0127 -0.31997,0.0127 -0.0413,0 -0.054,-0.006 -0.054,-0.0317 0,-0.0981 0.1524,-0.0159 0.1524,-0.25012 v -0.74506 c 0,-0.15205 -0.2032,-0.0632 -0.2032,-0.15205 0,-0.0508 0.0476,-0.054 0.15875,-0.0822 0.26599,-0.0603 0.30409,-0.13652 0.34219,-0.13652 0.0381,0 0.0381,0.0222 0.0381,0.0635 v 0.24412 c 0.13935,-0.16475 0.25365,-0.28222 0.33267,-0.28222 0.0794,0 0.25047,0.14252 0.25047,0.20285 0,0.11712 -0.1076,0.26599 -0.16475,0.26599 -0.0635,0 -0.0794,-0.12665 -0.25364,-0.12665 -0.17427,0 -0.16475,0.24095 -0.16475,0.26635 z"
         style="fill:#211e1e;fill-opacity:1;fill-rule:nonzero;stroke:none;stroke-width:0.35277778"
         id="path2717"
         inkscape:connector-curvature="0" />
      <path
         d="m 740.78518,538.32694 c -0.0571,0 -0.0698,-0.0222 -0.0698,0.079 0,0.2727 0.19367,0.52 0.46919,0.52 0.18698,0 0.34255,-0.16793 0.393,-0.16793 0.0127,0 0.0317,0.003 0.0317,0.0381 0,0.079 -0.26635,0.3295 -0.59267,0.3295 -0.31397,0 -0.62441,-0.19967 -0.62441,-0.63394 0,-0.36442 0.20602,-0.76094 0.61489,-0.76094 0.42474,0 0.59584,0.36159 0.59584,0.52634 0,0.0699 -0.019,0.0699 -0.0381,0.0699 z m 0.40252,-0.11112 c 0.054,0 0.073,0.003 0.073,-0.0854 0,-0.12029 -0.0889,-0.30762 -0.28857,-0.30762 -0.19014,0 -0.25999,0.18733 -0.25999,0.33302 0,0.0504 0.006,0.06 0.0159,0.06 z"
         style="fill:#211e1e;fill-opacity:1;fill-rule:nonzero;stroke:none;stroke-width:0.35277778"
         id="path2721"
         inkscape:connector-curvature="0" />
      <path
         d="m 742.62668,538.45369 c -0.01,-0.0445 -0.0413,-0.13617 0.0381,-0.13617 0.0508,0 0.0572,0.0286 0.0699,0.0695 0.10125,0.30409 0.29774,0.59301 0.64946,0.59301 0.2473,0 0.43745,-0.1524 0.43745,-0.40604 0,-0.26917 -0.19967,-0.31045 -0.70979,-0.53552 -0.2727,-0.12065 -0.45967,-0.24412 -0.45967,-0.57679 0,-0.36477 0.25365,-0.63077 0.62442,-0.63077 0.25999,0 0.39299,0.12347 0.48824,0.12347 0.0413,0 0.1203,-0.0508 0.16157,-0.0508 0.0476,0 0.0381,0.0476 0.0445,0.12065 l 0.0346,0.42475 c 0.006,0.0698 -0.003,0.1076 -0.0727,0.1076 -0.073,0 -0.12065,-0.5895 -0.66569,-0.5895 -0.2092,0 -0.35207,0.1203 -0.35207,0.33267 0,0.21273 0.17462,0.25365 0.59937,0.44062 0.33902,0.14888 0.54822,0.2854 0.54822,0.68792 0,0.41522 -0.2914,0.69744 -0.70697,0.69744 -0.19332,0 -0.3549,-0.0762 -0.53869,-0.11712 -0.079,-0.019 -0.0758,-0.0444 -0.0917,-0.12065 z"
         style="fill:#211e1e;fill-opacity:1;fill-rule:nonzero;stroke:none;stroke-width:0.35277778"
         id="path2725"
         inkscape:connector-curvature="0" />
      <path
         d="m 744.58237,538.32694 c -0.0571,0 -0.0698,-0.0222 -0.0698,0.079 0,0.2727 0.19367,0.52 0.46919,0.52 0.18698,0 0.3422,-0.16793 0.393,-0.16793 0.0127,0 0.0317,0.003 0.0317,0.0381 0,0.079 -0.26635,0.3295 -0.59267,0.3295 -0.31397,0 -0.62441,-0.19967 -0.62441,-0.63394 0,-0.36442 0.20602,-0.76094 0.61489,-0.76094 0.42474,0 0.59584,0.36159 0.59584,0.52634 0,0.0699 -0.019,0.0699 -0.0381,0.0699 z m 0.40252,-0.11112 c 0.054,0 0.073,0.003 0.073,-0.0854 0,-0.12029 -0.0889,-0.30762 -0.28857,-0.30762 -0.19014,0 -0.25999,0.18733 -0.25999,0.33302 0,0.0504 0.006,0.06 0.0159,0.06 z"
         style="fill:#211e1e;fill-opacity:1;fill-rule:nonzero;stroke:none;stroke-width:0.35277778"
         id="path2729"
         inkscape:connector-curvature="0" />
      <path
         d="m 745.98339,538.76114 c 0,0.29139 0.29457,0.1965 0.29457,0.28822 0,0.019 -0.0127,0.054 -0.0473,0.054 -0.0762,0 -0.25682,-0.0127 -0.3616,-0.0127 -0.14887,0 -0.24059,0.0127 -0.31997,0.0127 -0.0413,0 -0.054,-0.006 -0.054,-0.0317 0,-0.0981 0.1524,-0.0159 0.1524,-0.25012 v -0.74506 c 0,-0.15205 -0.2032,-0.0632 -0.2032,-0.15205 0,-0.0508 0.0476,-0.054 0.15875,-0.0822 0.26599,-0.0603 0.30409,-0.13652 0.34219,-0.13652 0.0381,0 0.0381,0.0222 0.0381,0.0635 v 0.24412 c 0.13935,-0.16475 0.25329,-0.28222 0.33267,-0.28222 0.0794,0 0.25047,0.14252 0.25047,0.20285 0,0.11712 -0.1076,0.26599 -0.16475,0.26599 -0.0635,0 -0.0794,-0.12665 -0.25364,-0.12665 -0.17427,0 -0.16475,0.24095 -0.16475,0.26635 z"
         style="fill:#211e1e;fill-opacity:1;fill-rule:nonzero;stroke:none;stroke-width:0.35277778"
         id="path2733"
         inkscape:connector-curvature="0" />
      <path
         d="m 747.4004,538.62486 c 0.006,0.01 0.0219,0.0663 0.0473,0.0663 0.019,0 0.0473,-0.0632 0.054,-0.0758 l 0.19014,-0.37712 c 0.0349,-0.0667 0.0889,-0.18098 0.0889,-0.24413 0,-0.15204 -0.2032,-0.0889 -0.2032,-0.17427 0,-0.0508 0.0349,-0.054 0.1016,-0.054 0.0667,0 0.13335,0.0127 0.1965,0.0127 0.0476,0 0.0952,-0.0127 0.15875,-0.0127 0.0377,0 0.0663,0.006 0.0663,0.0381 0,0.06 -0.0885,0.0536 -0.13934,0.15839 l -0.57997,1.13171 c -0.019,0.0381 -0.0222,0.0603 -0.054,0.0603 -0.0286,0 -0.0349,-0.0254 -0.0476,-0.054 l -0.52317,-1.09361 c -0.0854,-0.17744 -0.17392,-0.13335 -0.17392,-0.19967 0,-0.0413 0.0568,-0.0413 0.13935,-0.0413 0.0663,0 0.10442,0.0127 0.2219,0.0127 0.079,0 0.20284,-0.0127 0.26917,-0.0127 0.0317,0 0.0984,-0.01 0.0984,0.0381 0,0.0854 -0.23777,0.0476 -0.1838,0.17427 z"
         style="fill:#211e1e;fill-opacity:1;fill-rule:nonzero;stroke:none;stroke-width:0.35277778"
         id="path2737"
         inkscape:connector-curvature="0" />
      <path
         d="m 748.33854,538.0764 c 0,-0.15205 -0.2032,-0.0632 -0.2032,-0.15205 0,-0.0508 0.0476,-0.054 0.15875,-0.0822 0.26635,-0.0603 0.30409,-0.13653 0.34219,-0.13653 0.0385,0 0.0385,0.0222 0.0385,0.0635 v 1.06821 c 0,0.2025 0.23107,0.11712 0.23107,0.22472 0,0.0508 -0.0921,0.0413 -0.13018,0.0413 -0.10089,0 -0.19967,-0.0127 -0.30092,-0.0127 -0.0762,0 -0.15522,0.0127 -0.23459,0.0127 -0.054,0 -0.0889,0.01 -0.0889,-0.0444 0,-0.079 0.18732,-0.0254 0.18732,-0.1711 z m 0.1711,-0.61172 c -0.0508,0 -0.2092,-0.20284 -0.2092,-0.25047 0,-0.0473 0.1584,-0.25365 0.2092,-0.25365 0.0536,0 0.20919,0.20638 0.20919,0.25365 0,0.0476 -0.15557,0.25047 -0.20919,0.25047"
         style="fill:#211e1e;fill-opacity:1;fill-rule:nonzero;stroke:none;stroke-width:0.35277778"
         id="path2741"
         inkscape:connector-curvature="0" />
      <path
         d="m 749.71719,537.73089 c 0.1076,0 0.39934,0.054 0.39934,0.23777 0,0.0568 -0.18062,0.19332 -0.23459,0.19332 -0.0286,0 -0.0349,-0.0254 -0.0413,-0.0476 -0.0381,-0.15205 -0.0917,-0.25965 -0.26282,-0.25965 -0.24412,0 -0.29809,0.2279 -0.29809,0.42475 0,0.30409 0.16827,0.64664 0.46601,0.64664 0.18698,0 0.3422,-0.16827 0.393,-0.16827 0.0127,0 0.0317,0.003 0.0317,0.0381 0,0.0794 -0.26635,0.32984 -0.59267,0.32984 -0.36159,0 -0.61489,-0.27269 -0.61489,-0.63394 0,-0.4251 0.32632,-0.76094 0.75424,-0.76094"
         style="fill:#211e1e;fill-opacity:1;fill-rule:nonzero;stroke:none;stroke-width:0.35277778"
         id="path2745"
         inkscape:connector-curvature="0" />
      <path
         d="m 750.7157,538.32694 c -0.0571,0 -0.0698,-0.0222 -0.0698,0.079 0,0.2727 0.19332,0.52 0.46919,0.52 0.18698,0 0.34255,-0.16793 0.393,-0.16793 0.0127,0 0.0317,0.003 0.0317,0.0381 0,0.079 -0.266,0.3295 -0.59267,0.3295 -0.31362,0 -0.62441,-0.19967 -0.62441,-0.63394 0,-0.36442 0.20602,-0.76094 0.61489,-0.76094 0.42474,0 0.59584,0.36159 0.59584,0.52634 0,0.0699 -0.019,0.0699 -0.0381,0.0699 z m 0.40252,-0.11112 c 0.054,0 0.073,0.003 0.073,-0.0854 0,-0.12029 -0.0889,-0.30762 -0.28857,-0.30762 -0.19014,0 -0.25999,0.18733 -0.25999,0.33302 0,0.0504 0.006,0.06 0.0159,0.06 z"
         style="fill:#211e1e;fill-opacity:1;fill-rule:nonzero;stroke:none;stroke-width:0.35277778"
         id="path2749"
         inkscape:connector-curvature="0" />
      <path
         d="m 754.51924,537.54067 c 0.003,0.0317 0.0159,0.10477 -0.0381,0.10477 -0.0504,0 -0.0723,-0.0667 -0.0949,-0.10794 -0.15839,-0.3041 -0.43744,-0.57997 -0.80504,-0.57997 -0.46566,0 -0.72284,0.44379 -0.72284,0.86854 0,0.44697 0.254,1.07456 0.85937,1.07456 0.49107,0 0.70697,-0.41522 0.78881,-0.41522 0.0159,0 0.0444,0.0159 0.0444,0.0346 0,0.127 -0.33584,0.60572 -1.01106,0.60572 -0.92886,0 -1.07103,-0.81139 -1.07103,-1.06186 0,-0.53269 0.32632,-1.23296 1.125,-1.23296 0.38347,0 0.6276,0.19332 0.72249,0.19332 0.0603,0 0.0635,-0.10477 0.10831,-0.10477 0.0159,0 0.0374,0.003 0.0374,0.019 z"
         style="fill:#211e1e;fill-opacity:1;fill-rule:nonzero;stroke:none;stroke-width:0.35277778"
         id="path2753"
         inkscape:connector-curvature="0" />
      <path
         d="m 755.31451,539.1257 c -0.38312,0 -0.68157,-0.26635 -0.68157,-0.65617 0,-0.41522 0.29528,-0.73871 0.71967,-0.73871 0.39617,0 0.70062,0.26317 0.70062,0.66251 0,0.43145 -0.30128,0.73237 -0.73872,0.73237 m -0.34537,-0.83679 c -0.01,0.2092 0.0921,0.72567 0.44379,0.72567 0.24695,0 0.32033,-0.18345 0.32033,-0.39935 0,-0.25365 -0.0924,-0.78281 -0.43462,-0.78281 -0.27552,0 -0.31997,0.22824 -0.3295,0.45649"
         style="fill:#211e1e;fill-opacity:1;fill-rule:nonzero;stroke:none;stroke-width:0.35277778"
         id="path2757"
         inkscape:connector-curvature="0" />
      <path
         d="m 756.61724,538.76114 c 0,0.29139 0.29457,0.1965 0.29457,0.28822 0,0.019 -0.012,0.054 -0.0469,0.054 -0.0762,0 -0.25717,-0.0127 -0.36124,-0.0127 -0.14923,0 -0.2413,0.0127 -0.32033,0.0127 -0.0413,0 -0.054,-0.006 -0.054,-0.0317 0,-0.0981 0.15205,-0.0159 0.15205,-0.25012 v -0.74506 c 0,-0.15205 -0.20285,-0.0632 -0.20285,-0.15205 0,-0.0508 0.0476,-0.054 0.15875,-0.0822 0.26635,-0.0603 0.30445,-0.13652 0.34255,-0.13652 0.0374,0 0.0374,0.0222 0.0374,0.0635 v 0.24412 c 0.1397,-0.16475 0.254,-0.28222 0.33267,-0.28222 0.0794,0 0.25082,0.14252 0.25082,0.20285 0,0.11712 -0.10795,0.26599 -0.1651,0.26599 -0.0631,0 -0.0794,-0.12665 -0.25329,-0.12665 -0.17462,0 -0.1651,0.24095 -0.1651,0.26635 z"
         style="fill:#211e1e;fill-opacity:1;fill-rule:nonzero;stroke:none;stroke-width:0.35277778"
         id="path2761"
         inkscape:connector-curvature="0" />
      <path
         d="m 757.73636,539.45534 c 0,0.22789 0.25964,0.13935 0.25964,0.23742 0,0.019 -0.01,0.0413 -0.0667,0.0413 -0.11677,0 -0.16122,-0.0127 -0.28504,-0.0127 -0.19932,0 -0.25012,0.0127 -0.3041,0.0127 -0.0416,0 -0.073,0.003 -0.073,-0.0476 0,-0.0695 0.13299,-0.0282 0.13299,-0.14887 v -1.38818 c 0,-0.2346 -0.19614,-0.0952 -0.19614,-0.20603 0,-0.0857 0.15205,-0.0349 0.44979,-0.21554 0.0159,-0.01 0.0317,-0.0222 0.054,-0.0222 0.0349,0 0.0286,0.0667 0.0286,0.0857 v 0.15839 c 0.10795,-0.12347 0.25647,-0.21872 0.42474,-0.21872 0.3489,0 0.50695,0.28857 0.50695,0.58314 0,0.38982 -0.18345,0.81175 -0.6911,0.81175 -0.0723,0 -0.17074,-0.0254 -0.24059,-0.0603 z m 0,-0.63712 c 0,0.01 0.1143,0.19333 0.32632,0.19333 0.25682,0 0.32667,-0.24413 0.32667,-0.4565 0,-0.21872 -0.12065,-0.60219 -0.41875,-0.60219 -0.085,0 -0.17709,0.0508 -0.23424,0.11395 z"
         style="fill:#211e1e;fill-opacity:1;fill-rule:nonzero;stroke:none;stroke-width:0.35277778"
         id="path2765"
         inkscape:connector-curvature="0" />
      <path
         d="m 759.46398,539.1257 c -0.38347,0 -0.68157,-0.26635 -0.68157,-0.65617 0,-0.41522 0.29493,-0.73871 0.71967,-0.73871 0.39652,0 0.70062,0.26317 0.70062,0.66251 0,0.43145 -0.30128,0.73237 -0.73872,0.73237 m -0.34537,-0.83679 c -0.01,0.2092 0.0921,0.72567 0.44379,0.72567 0.24695,0 0.31997,-0.18345 0.31997,-0.39935 0,-0.25365 -0.0921,-0.78281 -0.43426,-0.78281 -0.27552,0 -0.31997,0.22824 -0.3295,0.45649"
         style="fill:#211e1e;fill-opacity:1;fill-rule:nonzero;stroke:none;stroke-width:0.35277778"
         id="path2769"
         inkscape:connector-curvature="0" />
      <path
         d="m 760.83022,538.76114 c 0,0.29139 0.29457,0.1965 0.29457,0.28822 0,0.019 -0.0127,0.054 -0.0476,0.054 -0.0762,0 -0.25646,-0.0127 -0.36124,-0.0127 -0.14852,0 -0.24059,0.0127 -0.31997,0.0127 -0.0413,0 -0.054,-0.006 -0.054,-0.0317 0,-0.0981 0.1524,-0.0159 0.1524,-0.25012 v -0.74506 c 0,-0.15205 -0.20285,-0.0632 -0.20285,-0.15205 0,-0.0508 0.0473,-0.054 0.1584,-0.0822 0.26599,-0.0603 0.30409,-0.13652 0.34219,-0.13652 0.0381,0 0.0381,0.0222 0.0381,0.0635 v 0.24412 c 0.13935,-0.16475 0.25365,-0.28222 0.33267,-0.28222 0.0794,0 0.25047,0.14252 0.25047,0.20285 0,0.11712 -0.10795,0.26599 -0.16475,0.26599 -0.0635,0 -0.0794,-0.12665 -0.254,-0.12665 -0.17391,0 -0.16439,0.24095 -0.16439,0.26635 z"
         style="fill:#211e1e;fill-opacity:1;fill-rule:nonzero;stroke:none;stroke-width:0.35277778"
         id="path2773"
         inkscape:connector-curvature="0" />
      <path
         d="m 762.54197,538.74209 c 0,0.1584 0.003,0.1965 0.085,0.1965 0.0381,0 0.0794,-0.0159 0.1016,-0.0159 0.0222,0 0.0349,0.0127 0.0349,0.0286 0,0.0631 -0.19297,0.17427 -0.30726,0.17427 -0.14923,0 -0.19297,-0.12665 -0.20567,-0.19332 -0.13335,0.10759 -0.32033,0.19332 -0.49495,0.19332 -0.17392,0 -0.29775,-0.12347 -0.29775,-0.29775 0,-0.38981 0.42157,-0.44379 0.74825,-0.52634 0,-0.2727 -0.0222,-0.46567 -0.2727,-0.46567 -0.12065,0 -0.14605,0.0314 -0.14605,0.17745 0,0.14887 -0.2025,0.14887 -0.22472,0.14887 -0.0254,0 -0.0826,-0.006 -0.0826,-0.0667 0,-0.27552 0.35807,-0.36442 0.57997,-0.36442 0.32632,0 0.48189,0.1457 0.48189,0.46567 z m -0.33584,-0.21872 c 0,-0.0854 0.006,-0.1143 -0.0222,-0.1143 -0.12382,0 -0.3743,0.10795 -0.3743,0.32032 0,0.0508 0.003,0.2092 0.16793,0.2092 0.0698,0 0.2286,-0.0349 0.2286,-0.1076 z"
         style="fill:#211e1e;fill-opacity:1;fill-rule:nonzero;stroke:none;stroke-width:0.35277778"
         id="path2777"
         inkscape:connector-curvature="0" />
      <path
         d="m 762.98855,537.9465 h -0.0984 c -0.0603,0 -0.0819,-0.0286 -0.0819,-0.0476 0,-0.0695 0.0533,-0.079 0.14217,-0.16158 0.23742,-0.22507 0.28187,-0.37112 0.33584,-0.37112 0.0254,0 0.0381,0.0222 0.0381,0.0349 v 0.33937 c 0,0.0317 0.0349,0.0317 0.0698,0.0317 h 0.21873 c 0.073,0 0.054,-0.0699 0.1016,-0.0699 0.0127,0 0.019,0.01 0.019,0.0222 0,0.0222 -0.0317,0.0921 -0.0413,0.11748 -0.0222,0.0441 -0.0222,0.10125 -0.0635,0.10125 h -0.30445 v 0.82726 c 0,0.11077 0.0222,0.17427 0.14605,0.17427 0.1584,0 0.21873,-0.0762 0.25365,-0.0762 0.0222,0 0.0349,0.01 0.0349,0.0476 0,0.054 -0.18098,0.20955 -0.44098,0.20955 -0.36124,0 -0.32949,-0.27305 -0.32949,-0.35525 z"
         style="fill:#211e1e;fill-opacity:1;fill-rule:nonzero;stroke:none;stroke-width:0.35277778"
         id="path2781"
         inkscape:connector-curvature="0" />
      <path
         d="m 763.99972,538.0764 c 0,-0.15205 -0.20249,-0.0632 -0.20249,-0.15205 0,-0.0508 0.0469,-0.054 0.15804,-0.0822 0.26635,-0.0603 0.30409,-0.13653 0.34219,-0.13653 0.0381,0 0.0381,0.0222 0.0381,0.0635 v 1.06821 c 0,0.2025 0.23143,0.11712 0.23143,0.22472 0,0.0508 -0.0921,0.0413 -0.12983,0.0413 -0.1016,0 -0.20002,-0.0127 -0.30127,-0.0127 -0.0759,0 -0.15522,0.0127 -0.23459,0.0127 -0.054,0 -0.0889,0.01 -0.0889,-0.0444 0,-0.079 0.18732,-0.0254 0.18732,-0.1711 z m 0.1711,-0.61172 c -0.0505,0 -0.2092,-0.20284 -0.2092,-0.25047 0,-0.0473 0.15875,-0.25365 0.2092,-0.25365 0.0536,0 0.20919,0.20638 0.20919,0.25365 0,0.0476 -0.15557,0.25047 -0.20919,0.25047"
         style="fill:#211e1e;fill-opacity:1;fill-rule:nonzero;stroke:none;stroke-width:0.35277778"
         id="path2785"
         inkscape:connector-curvature="0" />
      <path
         d="m 765.24531,539.1257 c -0.38312,0 -0.68157,-0.26635 -0.68157,-0.65617 0,-0.41522 0.29528,-0.73871 0.71967,-0.73871 0.39617,0 0.70062,0.26317 0.70062,0.66251 0,0.43145 -0.30128,0.73237 -0.73872,0.73237 m -0.34537,-0.83679 c -0.01,0.2092 0.0917,0.72567 0.44379,0.72567 0.24695,0 0.31997,-0.18345 0.31997,-0.39935 0,-0.25365 -0.0921,-0.78281 -0.43426,-0.78281 -0.27552,0 -0.31997,0.22824 -0.3295,0.45649"
         style="fill:#211e1e;fill-opacity:1;fill-rule:nonzero;stroke:none;stroke-width:0.35277778"
         id="path2789"
         inkscape:connector-curvature="0" />
      <path
         d="m 766.2533,538.0764 c 0,-0.15205 -0.20285,-0.0632 -0.20285,-0.15205 0,-0.0508 0.0473,-0.054 0.1584,-0.0822 0.26599,-0.0603 0.30409,-0.13653 0.34219,-0.13653 0.0381,0 0.0381,0.0222 0.0381,0.0635 v 0.18062 h 0.006 c 0.0857,-0.13934 0.24413,-0.21872 0.43145,-0.21872 0.3422,0 0.48154,0.28222 0.48154,0.58949 v 0.51365 c 0,0.19932 0.19685,0.15204 0.19685,0.22154 0,0.0381 -0.019,0.0476 -0.073,0.0476 -0.1016,0 -0.2032,-0.0127 -0.26952,-0.0127 -0.0794,0 -0.19368,0.0127 -0.23178,0.0127 -0.0603,0 -0.10407,0.0159 -0.10407,-0.0413 0,-0.0536 0.14535,-0.0822 0.14535,-0.19967 v -0.53869 c 0,-0.20603 -0.073,-0.38665 -0.31045,-0.38665 -0.2092,0 -0.2727,0.1203 -0.2727,0.3041 v 0.58667 c 0,0.18062 0.25683,0.15204 0.25683,0.22789 0,0.0286 -0.0222,0.0476 -0.0984,0.0476 -0.0346,0 -0.14887,-0.0127 -0.3108,-0.0127 -0.11042,0 -0.22154,0.0127 -0.31679,0.0127 -0.0317,0 -0.0349,-0.019 -0.0349,-0.0349 0,-0.0917 0.16827,-0.006 0.16827,-0.26917 z"
         style="fill:#211e1e;fill-opacity:1;fill-rule:nonzero;stroke:none;stroke-width:0.35277778"
         id="path2793"
         inkscape:connector-curvature="0" />
    </g>
  </g>
</svg>
