<svg width="150" height="61" viewBox="0 0 150 61" fill="none" xmlns="http://www.w3.org/2000/svg">
<g clip-path="url(#clip0_1417_3159)">
<path d="M149.399 0H0.399414V61H75.7181" fill="#A2A2A2"/>
<path d="M74.0807 12.2001V40.9378L61.3093 12.2001H48.5379L37.7313 36.0578C36.4214 30.0934 28.8895 27.9245 22.995 26.2978C19.0654 25.2134 14.8082 23.8578 14.8082 21.9601C14.8082 20.6045 17.1005 19.2489 21.3577 19.5201C24.3049 19.7912 26.9247 19.7912 32.1643 21.9601L37.4038 14.6401C32.4917 12.4712 25.9423 11.3867 20.7027 11.3867C14.4807 11.3867 9.24118 13.0134 5.96646 15.7245C3.67415 17.6223 2.69173 20.0623 2.36426 22.7734C2.36426 26.5689 4.00162 29.2801 7.60382 31.4489C10.5511 33.0756 14.1533 34.1601 17.428 34.9734C21.6851 36.0578 24.9599 37.1423 24.9599 39.0401C24.6324 41.4801 21.3577 42.0223 19.0654 42.0223C15.1357 42.2934 11.861 41.7512 6.94887 39.3112L2.36426 46.6312C7.27635 49.0712 12.5159 50.1556 18.7379 50.1556C22.995 50.1556 29.5445 49.0712 33.1467 46.3601L32.4917 48.8001H44.9357L47.228 44.1912C52.1401 45.2756 57.7071 45.5467 62.6192 44.1912L64.2566 48.8001H86.5247V37.9556H91.1093C102.571 37.9556 109.448 33.3467 109.448 25.2134C109.448 15.9956 102.898 12.2001 88.817 12.2001H74.0807ZM50.1752 36.0578L54.7599 23.8578H55.0873L59.672 36.0578C56.3972 36.8712 53.1225 36.8712 50.1752 36.0578ZM86.5247 29.8223V20.0623H89.7994C94.0566 20.0623 97.3313 21.1467 97.3313 24.6712C97.3313 28.4667 94.0566 29.8223 89.7994 29.8223H86.5247Z" fill="white"/>
</g>
<defs>
<clipPath id="clip0_1417_3159">
<rect width="149" height="61" fill="white" transform="translate(0.399414)"/>
</clipPath>
</defs>
</svg>
