<svg version="1.2" xmlns="http://www.w3.org/2000/svg" viewBox="0 0 1587 652" width="1587" height="652">
	<title>ullll-svg</title>
	<defs>
		<linearGradient id="g1" x2="1" gradientUnits="userSpaceOnUse" gradientTransform="matrix(629.456,0,0,578.919,84.499,373.27)">
			<stop offset="0" stop-color="#ca0123"/>
			<stop offset=".15" stop-color="#c10123"/>
			<stop offset=".4" stop-color="#a90224"/>
			<stop offset=".71" stop-color="#810326"/>
			<stop offset=".97" stop-color="#5b0428"/>
		</linearGradient>
		<linearGradient id="g2" x2="1" gradientUnits="userSpaceOnUse" gradientTransform="matrix(-461.86,387.528,-427.915,-509.993,514.417,170.371)">
			<stop offset="0" stop-color="#ca0123"/>
			<stop offset=".15" stop-color="#c10123"/>
			<stop offset=".4" stop-color="#a90224"/>
			<stop offset=".71" stop-color="#810326"/>
			<stop offset=".97" stop-color="#5b0428"/>
		</linearGradient>
	</defs>
	<style>
		.s0 { fill: url(#g1) } 
		.s1 { fill: url(#g2) } 
		.s2 { fill: #ca0123 } 
	</style>
	<g id="a">
	</g>
	<g id="b">
		<g id="c">
			<g id="d">
				<g id="e">
					<g id="f">
						<path id="Layer" class="s0" d="m311.2 570.5c141.8 0 242.8-114.1 242.8-244.5 0-130.4-102.7-228.2-228.1-228.2-13.1 0-29.4 1.6-37.5 3.3 14.7-4.9 39.1-6.6 52.1-6.6 166.2 0 265.6 133.7 265.6 277.1 0 167.9-125.4 280.4-280.2 280.4-179.3 0-325.9-146.7-325.9-326 0-63.6 19.6-146.7 86.4-220-42.4 58.6-53.8 117.3-53.8 176 0 151.6 102.6 288.5 278.6 288.5z"/>
						<path id="Layer" class="s1" d="m340.5 81.5c-141.7 0-242.7 114.1-242.7 244.5 0 130.4 102.6 228.2 228.1 228.2 13 0 29.3-1.6 37.4-3.3-14.6 4.9-39.1 6.6-52.1 6.6-166.2 0-265.6-133.7-265.6-277.1 0-167.9 125.5-280.4 280.3-280.4 179.2 0 325.8 146.7 325.8 326 0 63.6-19.5 146.7-86.3 220 42.4-58.6 53.8-117.3 53.8-176 0-151.6-102.7-288.5-278.7-288.5z"/>
					</g>
					<path id="Layer" fill-rule="evenodd" class="s2" d="m798.7 406.8c-32.6 0-50.5-19.5-52.1-50.5h30.9c0 16.3 8.2 24.5 19.6 24.5 8.1 0 16.3-3.3 16.3-14.7 0-11.4-8.2-17.9-22.8-26.1l-11.4-6.5c-16.3-8.2-29.4-19.6-29.4-42.4 0-29.3 21.2-44 48.9-44 29.3 0 47.3 17.9 47.3 47.3h-31c-1.6-16.3-6.5-24.5-17.9-24.5-9.8 0-14.7 6.5-14.7 14.7 0 11.4 9.8 17.9 21.2 24.4l9.8 6.6c11.4 6.5 32.6 17.9 32.6 47.2 1.6 31-22.8 44-47.3 44zm60.3-60.3c0-37.5 22.8-58.6 50.5-58.6 27.7 0 50.5 19.5 50.5 58.6 0 39.2-22.8 58.7-50.5 58.7-27.7 1.6-50.5-19.2-50.5-58.7zm70.1 0.4c0-21.2-8.2-32.6-19.6-32.6-11.4 0-19.5 11.4-19.5 32.6 0 21.2 8.1 32.6 19.5 32.6 13 0 19.6-11.4 19.6-32.6zm47.2-102.7h31v161h-31zm117 159.4l-3.3-11.4h-1.6c-4.9 8.2-13 14.7-27.7 14.7-21.2 0-34.2-14.7-34.2-39.1v-76.6h31v70.1c0 13 6.5 19.5 16.3 19.5 9.7 0 16.2-6.5 16.2-19.5v-68.5h31v110.8zm152.3-126.8c-10.3 0-18.7-8-18.7-17.9 0-9.9 8.4-17.9 18.7-17.9 10.4 0 18.8 8 18.8 17.9 0 9.9-8.4 17.9-18.8 17.9zm-15.4 14.4h30.9v112.4h-30.9zm48.5 55.5c0-37.5 22.8-58.7 50.5-58.7 27.7 0 50.5 19.5 50.5 58.7 0 39.1-22.8 58.6-50.5 58.6-27.7 0-50.5-19.2-50.5-58.6zm70.1 0.3c0-21.2-8.2-32.6-19.6-32.6-11.4 0-19.5 11.4-19.5 32.6 0 21.2 8.1 32.6 19.5 32.6 11.4 0 19.6-11.4 19.6-32.6zm152.8 20.8h29.3c1.7 11.5 6.6 14.7 14.7 14.7 6.5 0 11.4-3.2 11.4-9.8 0-8.1-6.5-11.4-16.3-14.6l-8.1-3.3c-13.1-4.9-29.4-11.4-29.4-32.6 0-22.8 18-34.2 40.8-34.2 26.1 0 40.7 14.6 40.7 34.2h-29.3c0-8.1-4.9-13-13-13q-9.8 0-9.8 9.7c0 6.6 6.5 9.8 14.6 13.1l8.2 3.2c14.7 4.9 30.9 13.1 30.9 35.9 0 22.8-19.5 32.6-40.7 32.6-27.7 1.6-42-11.4-44-35.9zm-346.4 6.6v-58.7h-19.5v-24.5h4.9c11.4 0 16.2-4.9 16.2-16.3v-13h27.7v29.3h27.7v24.5h-27.7v53.8c0 6.5 3.3 13 13.1 13 3.2 0 6.5 0 9.8-1.6v22.8c-4.9 1.6-13.1 1.6-19.6 1.6-22.8 1.7-32.6-13-32.6-30.9zm266.9-82.8l3.3 11.4h1.6c4.9-8.2 13-14.7 27.7-14.7 21.2 0 34.2 14.7 34.2 39.1v76.6h-30.9v-70.1c0-13-6.6-19.5-16.3-19.5-9.8 0-16.3 6.5-16.3 21.2v68.4h-31v-112.4zm-1184.5-120.3v170.1c0 10.8 3.2 20.2 18.2 20.2 13.7 0 17.9-12 17.9-21.5v-168.8h52.8v163.3c0 38.5-16.9 67.8-71 67.8-45 0-71.1-21.5-71.1-67.8v-163.3zm109.9 307.4v-225.9h52.8v180.6h64.5v45.3z"/>
				</g>
			</g>
		</g>
	</g>
</svg>