<svg width="150" height="61" viewBox="0 0 150 61" fill="none" xmlns="http://www.w3.org/2000/svg">
<g clip-path="url(#clip0_1417_3150)">
<path d="M29.6173 53.3746C42.9306 53.3746 52.4133 42.6996 52.4133 30.4996C52.4133 18.2996 42.771 9.14956 30.9975 9.14956C29.7675 9.14956 28.2372 9.29926 27.4767 9.4583C28.8568 8.99987 31.1477 8.84082 32.3682 8.84082C47.9724 8.84082 57.3048 21.3496 57.3048 34.7658C57.3048 50.4743 45.5313 60.9996 30.9975 60.9996C14.1634 60.9996 0.399414 47.2746 0.399414 30.4996C0.399414 24.5493 2.23962 16.7746 8.51132 9.91674C4.53048 15.3993 3.46016 20.8911 3.46016 26.383C3.46016 40.5664 13.0931 53.3746 29.6173 53.3746Z" fill="#A2A2A2"/>
<path d="M32.3682 7.625C19.0643 7.625 9.58161 18.3 9.58161 30.5C9.58161 42.7 19.2145 51.85 30.9974 51.85C32.218 51.85 33.7483 51.7003 34.5088 51.5413C33.1381 51.9997 30.8378 52.1587 29.6173 52.1587C14.0131 52.1587 4.68066 39.65 4.68066 26.2337C4.68066 10.5253 16.4636 0 30.9974 0C47.8221 0 61.5861 13.725 61.5861 30.5C61.5861 36.4503 59.7553 44.225 53.4836 51.0828C57.4644 45.6003 58.5347 40.1084 58.5347 34.6166C58.5347 20.4331 48.8924 7.625 32.3682 7.625Z" fill="#A2A2A2"/>
<path fill-rule="evenodd" clip-rule="evenodd" d="M75.3872 38.0593C72.3265 38.0593 70.6459 36.235 70.4957 33.3346H73.3968C73.3968 34.8596 74.1667 35.6268 75.237 35.6268C75.9975 35.6268 76.7674 35.3181 76.7674 34.2515C76.7674 33.185 75.9975 32.5768 74.6267 31.8096L73.5564 31.2015C72.026 30.4343 70.7961 29.3678 70.7961 27.2346C70.7961 24.4934 72.7865 23.1181 75.3872 23.1181C78.1381 23.1181 79.8281 24.7928 79.8281 27.5434H76.9176C76.7674 26.0184 76.3073 25.2512 75.237 25.2512C74.3169 25.2512 73.8568 25.8593 73.8568 26.6265C73.8568 27.6931 74.7769 28.3012 75.8473 28.9093L76.7674 29.5268C77.8377 30.135 79.8281 31.2015 79.8281 33.9428C79.9783 36.8431 77.6875 38.0593 75.3872 38.0593ZM81.0487 32.4178C81.0487 28.9093 83.1893 26.9353 85.79 26.9353C88.3907 26.9353 90.5313 28.7596 90.5313 32.4178C90.5313 36.0853 88.3907 37.9097 85.79 37.9097C83.1893 38.0593 81.0487 36.1133 81.0487 32.4178ZM87.6302 32.4552C87.6302 30.4718 86.8603 29.4052 85.79 29.4052C84.7197 29.4052 83.9592 30.4718 83.9592 32.4552C83.9592 34.4386 84.7197 35.5052 85.79 35.5052C87.0105 35.5052 87.6302 34.4386 87.6302 32.4552ZM92.0617 22.8468H94.9722V37.9097H92.0617V22.8468ZM103.047 37.76L102.737 36.6934H102.587C102.126 37.4606 101.366 38.0687 99.9858 38.0687C97.9954 38.0687 96.7749 36.6934 96.7749 34.4106V27.244H99.6854V33.8024C99.6854 35.0187 100.296 35.6268 101.216 35.6268C102.126 35.6268 102.737 35.0187 102.737 33.8024V27.3937H105.647V37.76H103.047ZM117.346 25.8968C116.379 25.8968 115.59 25.1483 115.59 24.2221C115.59 23.2958 116.379 22.5474 117.346 22.5474C118.322 22.5474 119.111 23.2958 119.111 24.2221C119.111 25.1483 118.322 25.8968 117.346 25.8968ZM115.9 27.244H118.801V37.76H115.9V27.244ZM120.453 32.4365C120.453 28.9281 122.594 26.9446 125.195 26.9446C127.795 26.9446 129.936 28.769 129.936 32.4365C129.936 36.0946 127.795 37.919 125.195 37.919C122.594 37.919 120.453 36.1227 120.453 32.4365ZM127.035 32.4646C127.035 30.4811 126.265 29.4146 125.195 29.4146C124.124 29.4146 123.364 30.4811 123.364 32.4646C123.364 34.448 124.124 35.5146 125.195 35.5146C126.265 35.5146 127.035 34.448 127.035 32.4646ZM141.381 34.4106H144.132C144.292 35.4865 144.752 35.7859 145.512 35.7859C146.122 35.7859 146.582 35.4865 146.582 34.869C146.582 34.1112 145.972 33.8024 145.052 33.5031L144.291 33.1943C143.062 32.7359 141.531 32.1277 141.531 30.1443C141.531 28.0112 143.221 26.9446 145.362 26.9446C147.812 26.9446 149.183 28.3106 149.183 30.1443H146.432C146.432 29.3865 145.972 28.9281 145.212 28.9281C144.598 28.9281 144.291 29.2306 144.291 29.8356C144.291 30.4531 144.902 30.7524 145.662 31.0612L146.432 31.3606C147.812 31.819 149.333 32.5862 149.333 34.7193C149.333 36.8524 147.502 37.7693 145.512 37.7693C142.911 37.919 141.569 36.7027 141.381 34.4106ZM108.858 35.0281V29.5362H107.027V27.244H107.487C108.558 27.244 109.008 26.7856 109.008 25.719V24.5027H111.609V27.244H114.21V29.5362H111.609V34.5696C111.609 35.1777 111.919 35.7859 112.839 35.7859C113.14 35.7859 113.449 35.7859 113.759 35.6362V37.7693C113.299 37.919 112.529 37.919 111.919 37.919C109.778 38.0781 108.858 36.7027 108.858 35.0281ZM133.917 27.2814L134.227 28.348H134.377C134.837 27.5808 135.597 26.9727 136.978 26.9727C138.968 26.9727 140.189 28.348 140.189 30.6308V37.7974H137.287V31.2389C137.287 30.0227 136.668 29.4146 135.757 29.4146C134.837 29.4146 134.227 30.0227 134.227 31.398V37.7974H131.316V27.2814H133.917ZM22.7067 16.0264V31.9406C22.7067 32.9511 23.0072 33.8305 24.4155 33.8305C25.7018 33.8305 26.0961 32.7078 26.0961 31.819V16.0264H31.0534V31.3044C31.0534 34.9064 29.4667 37.6477 24.3873 37.6477C20.1624 37.6477 17.7119 35.6362 17.7119 31.3044V16.0264H22.7067ZM33.025 44.7862V23.6514H37.9823V40.548H44.0381V44.7862H33.025Z" fill="#A2A2A2"/>
</g>
<defs>
<clipPath id="clip0_1417_3150">
<rect width="149" height="61" fill="white" transform="translate(0.399414)"/>
</clipPath>
</defs>
</svg>
