<svg width="288" height="61" viewBox="0 0 288 61" fill="none" xmlns="http://www.w3.org/2000/svg">
<g clip-path="url(#clip0_1417_3171)">
<path d="M285.157 60.551C284.168 60.551 283.338 59.578 283.338 58.4178C283.338 57.2577 284.168 56.2847 285.157 56.2847C286.146 56.2847 286.975 57.2203 286.975 58.4178C286.959 58.9776 286.763 59.5094 286.425 59.9055C286.087 60.3015 285.634 60.5323 285.157 60.551ZM285.157 55.873C284.734 55.873 284.321 56.0201 283.969 56.2956C283.618 56.5711 283.344 56.9627 283.182 57.4209C283.02 57.879 282.978 58.3832 283.06 58.8696C283.143 59.3559 283.346 59.8027 283.645 60.1534C283.944 60.504 284.325 60.7428 284.74 60.8396C285.154 60.9363 285.584 60.8867 285.975 60.6969C286.365 60.5071 286.699 60.1858 286.934 59.7734C287.169 59.3611 287.294 58.8763 287.294 58.3804C287.294 57.0332 286.337 55.9105 285.157 55.873Z" fill="#A2A2A2"/>
<path d="M285.061 58.1182H284.646V57.4071H285.284C285.54 57.4071 285.859 57.4446 285.859 57.7439C285.891 58.1556 285.348 58.1182 285.061 58.1182ZM286.21 57.7439C286.21 57.1452 285.795 57.0329 285.38 57.0329H284.359V59.8022H284.678V58.5298H285.093L285.795 59.8022H286.178L285.476 58.5298C285.859 58.4924 286.178 58.2679 286.21 57.7439ZM271.374 60.9624C271.821 59.5777 272.172 58.193 272.491 56.7709C273.448 52.0556 273.671 47.1906 273.097 42.4004C273.001 44.0096 272.81 45.5814 272.555 47.1532C272.65 47.49 272.81 48.0513 272.874 48.3881C272.65 50.9703 272.235 53.5151 271.629 55.9851C271.342 54.7501 270.959 53.59 270.927 53.5151C270.066 56.0973 269.109 58.5673 267.992 60.9998L271.374 60.9624Z" fill="#A2A2A2"/>
<path d="M264.291 60.9629H266.238C271.789 51.3451 272.076 42.8126 272.076 41.166C272.108 38.3967 271.693 35.6273 270.896 32.9703C270.098 30.65 269.109 28.4421 267.96 26.3838C268.279 27.4691 268.535 28.6292 268.758 29.7519C268.758 29.8267 268.79 29.9016 268.79 29.9764C269.141 30.6875 270.736 33.9807 270.959 37.6108C271.183 41.2408 269.843 35.777 268.981 34.5795C268.949 36.5629 268.726 38.5464 268.375 40.4924C269.237 41.6899 270.066 42.9249 270.8 44.2347C270.449 46.3678 269.907 48.4635 269.205 50.4844C268.439 49.1746 267.578 47.9396 266.684 46.7421C265.823 49.1746 264.802 51.5323 263.653 53.8151C263.653 53.8151 265.759 56.7341 266.238 57.5574C265.6 58.755 264.993 59.8402 264.291 60.9629Z" fill="#A2A2A2"/>
<path d="M257.336 60.963C261.037 56.1354 264.163 50.447 266.046 44.347C267.673 39.0703 268.566 32.5961 267.131 26.8703C267.035 26.4961 266.907 26.1219 266.811 25.7102C266.397 24.4004 265.822 23.2029 265.089 22.1176C263.334 19.7973 261.324 17.7391 259.122 16.0176C259.442 16.5041 259.729 16.9906 259.984 17.5145C259.984 17.5145 262.632 19.8348 264.195 22.1924C263.174 21.2943 262.09 20.471 260.941 19.7973C261.388 21.0697 261.707 22.417 261.93 23.8016C263.525 24.8121 265.025 26.0096 266.397 27.3943C266.684 29.0035 266.811 30.6127 266.78 32.2593C265.344 30.7998 263.781 29.49 262.153 28.3298C262.09 30.2384 261.898 32.1096 261.547 33.9433C263.174 35.1783 264.706 36.6004 266.173 38.0973C265.759 40.193 265.184 42.2513 264.482 44.2348C263.047 42.7004 261.579 41.2035 260.016 39.8562C259.218 42.1765 258.293 44.3844 257.176 46.5176C259.346 48.763 261.42 51.0458 261.42 51.0458C260.143 53.3286 258.74 55.5366 257.208 57.5575L253.284 52.9918C251.689 55.2746 249.966 57.4452 248.083 59.4286L249.296 61.0004L257.336 60.963Z" fill="#A2A2A2"/>
<path d="M258.357 16.4665C258.102 16.0548 257.814 15.6431 257.495 15.2689C257.208 14.9695 256.921 14.6701 256.634 14.4082C253.38 11.5266 247.382 10.1045 247.382 10.1045C247.956 10.4787 248.435 10.8155 248.435 10.8155C249.998 11.302 251.529 11.9382 253.029 12.7615C253.029 12.7615 251.083 12.2376 249.838 12.0505C250.349 12.6119 250.859 13.1732 251.274 13.8468C251.274 13.8468 255.262 14.7076 256.985 15.8303C257.623 16.6536 258.134 17.5892 258.516 18.5996C256.634 17.7388 254.688 17.1027 252.71 16.6161C253.125 17.7014 253.412 18.8615 253.603 20.0591C255.645 20.6579 257.623 21.4812 259.537 22.4542C259.761 23.9137 259.856 25.3732 259.793 26.8327C257.846 25.71 255.836 24.737 253.795 23.9511C253.731 25.5603 253.507 27.1321 253.156 28.6665C253.156 28.6665 257.272 30.837 259.123 32.1094C258.708 34.018 258.134 35.8892 257.464 37.6855C254.656 35.5523 251.689 33.6438 251.689 33.6438C250.955 35.7395 249.105 39.1824 249.105 39.1824C249.136 39.2198 252.199 41.6898 254.56 43.8603C253.38 45.956 252.072 47.9395 250.636 49.8106C250.157 49.2493 245.627 44.5714 245.627 44.5714C244.223 46.4799 242.692 48.2763 241.096 49.9603L245.436 55.7235C243.649 57.445 241.766 59.0542 239.788 60.5137L236.183 54.4511C234.014 56.2474 231.717 57.8192 229.324 59.129V60.8879H243.489C259.218 46.929 264.833 26.8701 258.357 16.4665Z" fill="#A2A2A2"/>
<path d="M250.317 14.3703C246.393 8.19545 240.267 9.05619 238.417 9.35557C237.236 9.54269 236.056 9.84208 234.875 10.2163C235.322 10.2537 235.928 10.366 236.375 10.4783C236.694 10.4034 239.533 9.61754 241.575 9.95435C240.299 10.1789 239.023 10.5157 237.811 10.9648C238.321 11.1519 238.8 11.4139 239.246 11.7132C241.097 11.1519 243.011 10.8151 244.925 10.7028C245.595 11.077 246.233 11.4887 246.871 11.9752C244.734 11.9752 242.596 12.2372 240.491 12.7611C240.937 13.2102 241.32 13.7341 241.671 14.2955C244 13.8838 246.361 13.7715 248.69 13.9212C248.69 13.9212 249.137 14.5574 249.328 14.8942C249.583 15.3433 249.839 15.8298 250.03 16.3163C247.541 16.0169 244.989 15.9421 242.5 16.1666C242.756 16.9525 242.947 17.7758 243.011 18.6366C245.627 18.674 248.275 18.9734 250.859 19.5347C250.987 20.7323 251.019 21.9298 250.891 23.1274C248.307 22.3415 245.691 21.8175 243.043 21.4807C242.947 22.6409 242.788 23.7635 242.532 24.8862C242.947 24.9985 247.541 26.2709 250.126 27.5059C250.062 27.693 250.03 27.8801 249.966 28.0672C249.583 29.4145 249.137 30.6869 248.594 31.9593C246.52 30.7617 241.416 28.4415 241.416 28.4415C240.873 29.8261 240.267 31.1734 239.565 32.4832C239.565 32.4832 243.936 35.4022 246.042 37.0114C245.053 38.6955 243.936 40.2672 242.756 41.7642C241.224 40.155 237.428 36.712 237.141 36.4501C235.928 38.1715 234.365 39.9678 233.886 40.4918L238.449 46.6292L238.321 46.7789C237.332 47.7519 236.279 48.6501 235.354 49.3611C234.556 49.9973 233.918 50.4838 233.695 50.6335C233.631 50.5212 230.664 44.9451 230.185 44.047C229.866 44.3464 229.515 44.6083 229.196 44.8703V56.3967C229.739 56.0973 230.281 55.7979 230.823 55.4237C233.472 53.8893 235.928 52.0182 238.225 49.8476C239.852 48.3507 241.384 46.704 242.82 44.9451C244.606 42.8494 246.201 40.5292 247.637 38.0967C252.71 29.3396 254.05 20.2458 250.317 14.3703Z" fill="#A2A2A2"/>
<path d="M240.171 13.9217C238.289 11.4143 235.194 10.5536 231.589 11.1524L231.302 11.1898C231.015 11.2647 230.76 11.3021 230.472 11.3769C230.09 11.4892 229.675 11.6015 229.292 11.7886V13.061C229.643 12.7242 230.026 12.4248 230.377 12.1254C231.079 11.9383 231.781 11.826 232.482 11.7886C231.366 12.537 230.313 13.3978 229.292 14.2959V15.2689L229.324 15.3064C229.324 15.3064 231.972 12.8364 234.078 11.7886C234.556 11.826 235.067 11.9008 235.545 12.0505C233.567 13.0235 231.685 14.2585 229.93 15.6806C230.153 15.8303 230.377 16.0174 230.6 16.2045C232.642 14.745 234.811 13.5475 237.045 12.6119C237.491 12.8364 237.938 13.1358 238.321 13.51C235.864 14.3708 233.44 15.4935 231.142 16.8781C231.334 17.1401 231.525 17.4395 231.653 17.7389L231.717 17.7015C234.205 16.5039 236.79 15.5309 239.438 14.8573C239.757 15.3812 240.012 15.9426 240.203 16.5413C237.428 16.9904 234.716 17.7389 232.068 18.7493C232.195 19.161 232.259 19.61 232.323 20.0591C235.067 19.3855 237.842 18.9364 240.618 18.7867C240.682 19.6101 240.65 20.4334 240.554 21.2567C238.193 21.107 232.578 21.4812 232.355 21.4812C232.323 22.1174 232.259 22.7162 232.132 23.315C234.748 23.4272 237.396 23.764 239.98 24.288C239.693 25.3358 239.31 26.3837 238.895 27.3941C236.407 26.4959 232.61 25.4481 231.621 25.1861C231.366 25.972 231.015 26.7205 230.632 27.4315C230.632 27.4315 235.258 29.7892 237.013 30.9493C236.311 32.072 235.545 33.1573 234.716 34.2051C234.269 33.8309 233.854 33.4567 233.471 33.1199L229.324 29.7143V34.2051L231.717 37.4984C230.951 38.2094 230.153 38.9205 229.324 39.5193V42.1763L229.42 42.1015C230.536 41.2033 231.621 40.2303 232.642 39.1824C240.841 30.7248 244.255 19.4229 240.171 13.9217Z" fill="#A2A2A2"/>
<path d="M229.26 26.7577C231.366 23.2399 231.685 19.1982 229.834 17.2147C229.675 17.0276 229.483 16.8779 229.26 16.7282V26.7577ZM240.809 7.78405C259.537 7.78405 274.788 25.7472 274.788 47.7896C274.788 52.2804 274.15 56.6963 272.905 60.9252H281.232V0H229.26V10.1791H229.292C232.993 8.60736 236.885 7.78405 240.809 7.78405ZM202.843 34.2798C202.588 35.2528 202.109 36.1135 201.439 36.7497C200.705 37.4233 199.844 37.8724 198.919 38.0969C197.706 38.3963 196.462 38.5086 195.186 38.5086H189.06V22.4166H195.186C196.462 22.3791 197.738 22.5288 198.983 22.8656C199.908 23.0902 200.737 23.5767 201.471 24.2877C202.109 24.9613 202.588 25.8221 202.843 26.7951C203.13 27.9926 203.29 29.2276 203.258 30.4626C203.29 31.7724 203.162 33.0448 202.843 34.2798ZM207.533 19.4227C206.129 18.0006 204.47 16.9528 202.683 16.354C200.705 15.6055 198.344 15.2687 195.569 15.2687H181.563V45.6939H195.569C200.546 45.6939 204.406 44.4215 207.15 41.9141C209.894 39.3693 211.234 35.5896 211.234 30.5C211.266 28.3669 210.947 26.2712 210.341 24.2877C209.734 22.3791 208.777 20.7325 207.533 19.4227ZM151.764 33.1945H165.961V27.2442H151.764V22.192H168.609L168.482 15.2687H144.234V45.6939H169.184L169.311 38.8454H151.764V33.1945ZM105.949 15.2687L105.757 22.454H115.68V45.6939H123.241V22.454H133.163L133.004 15.2687H105.949ZM86.5828 15.2687H94.2718V45.6939H86.5828V15.2687ZM65.2706 30.3877L65.3344 33.6436L65.2706 33.7184L63.2925 31.3607L49.2545 15.2687H43.0331V45.6939H49.8926V29.7141L49.8288 26.4209L49.9245 26.3834L51.9026 28.7037L67.1849 45.6939H72.1301V15.2687H65.2706V30.3877ZM22.1995 32.4086C22.1995 34.6914 21.6571 36.4129 20.5404 37.5356C19.4238 38.6583 17.669 39.2196 15.2124 39.2196C12.7557 39.2196 10.9372 38.6583 9.78862 37.5356C8.64005 36.4129 8.06577 34.6914 8.06577 32.4086V15.2687H0.504395V32.3337C0.504395 37.0491 1.78058 40.5669 4.30103 42.8497C6.82149 45.1699 10.4586 46.3301 15.1805 46.3301C19.9662 46.3301 23.5714 45.1699 25.9961 42.8871C28.4528 40.6043 29.6651 37.0865 29.6651 32.3337V15.2687H22.1995V32.4086Z" fill="#A2A2A2"/>
</g>
<defs>
<clipPath id="clip0_1417_3171">
<rect width="287" height="61" fill="white" transform="translate(0.399414)"/>
</clipPath>
</defs>
</svg>
