<svg width="26" height="23" viewBox="0 0 26 23" fill="none" xmlns="http://www.w3.org/2000/svg">
<g id="vuesax/linear/profile-2user">
<g id="profile-2user">
<path id="Vector" d="M9.92327 10.4172C9.81494 10.4076 9.68494 10.4076 9.56577 10.4172C6.98744 10.3405 4.93994 8.47175 4.93994 6.17175C4.93994 3.82383 7.08494 1.91675 9.74994 1.91675C12.4041 1.91675 14.5599 3.82383 14.5599 6.17175C14.5491 8.47175 12.5016 10.3405 9.92327 10.4172Z" stroke="#787486" stroke-width="1.5" stroke-linecap="round" stroke-linejoin="round"/>
<path id="Vector_2" d="M17.7776 3.83325C19.8792 3.83325 21.5692 5.33784 21.5692 7.18742C21.5692 8.99867 19.9442 10.4745 17.9184 10.5416C17.8317 10.532 17.7342 10.532 17.6367 10.5416" stroke="#787486" stroke-width="1.5" stroke-linecap="round" stroke-linejoin="round"/>
<path id="Vector_3" d="M4.50678 13.9533C1.88511 15.5058 1.88511 18.0358 4.50678 19.5787C7.48594 21.342 12.3718 21.342 15.3509 19.5787C17.9726 18.0262 17.9726 15.4962 15.3509 13.9533C12.3826 12.1995 7.49678 12.1995 4.50678 13.9533Z" stroke="#787486" stroke-width="1.5" stroke-linecap="round" stroke-linejoin="round"/>
<path id="Vector_4" d="M19.8689 19.1667C20.6489 19.023 21.3856 18.7451 21.9922 18.333C23.6822 17.2117 23.6822 15.3622 21.9922 14.2409C21.3964 13.8384 20.6706 13.5701 19.9014 13.4167" stroke="#787486" stroke-width="1.5" stroke-linecap="round" stroke-linejoin="round"/>
</g>
</g>
</svg>
