<svg width="20" height="19" viewBox="0 0 20 19" fill="none" xmlns="http://www.w3.org/2000/svg">
<g id="Iconly/Curved/Outline/2 User">
<g id="Union">
<path fill-rule="evenodd" clip-rule="evenodd" d="M7.98343 9.52044H8.00843C10.3584 9.52044 12.2701 7.70436 12.2701 5.47107C12.2701 3.23857 10.3584 1.42249 8.00843 1.42249C5.65927 1.42249 3.7476 3.23857 3.7476 5.46869C3.7426 6.54774 4.18093 7.56265 4.98093 8.32819C5.7801 9.09215 6.84593 9.51649 7.98343 9.52044ZM4.9976 5.47107C4.9976 3.89328 6.34843 2.60999 8.00843 2.60999C9.66927 2.60999 11.0201 3.89328 11.0201 5.47107C11.0201 7.04886 9.66927 8.33294 8.00843 8.33294H7.98593C7.18427 8.32978 6.43177 8.03132 5.86843 7.49061C5.30343 6.95069 4.99427 6.23424 4.9976 5.47107Z" fill="black"/>
<path fill-rule="evenodd" clip-rule="evenodd" d="M1.70898 14.7838C1.70898 17.5776 6.28565 17.5776 8.00815 17.5776C9.56565 17.5776 14.3073 17.5776 14.3073 14.7679C14.3073 12.6407 11.4232 10.8429 8.00815 10.8429C4.59315 10.8429 1.70898 12.6471 1.70898 14.7838ZM2.95898 14.7838C2.95898 13.4839 5.11815 12.0304 8.00815 12.0304C10.8982 12.0304 13.0573 13.4751 13.0573 14.7679C13.0573 16.1082 10.3115 16.3901 8.00815 16.3901C4.65732 16.3901 2.95898 15.8494 2.95898 14.7838Z" fill="black"/>
<path d="M14.0443 8.57061C13.7677 8.57061 13.5152 8.39565 13.4402 8.12965C13.3518 7.81299 13.5493 7.4884 13.8835 7.4029C14.806 7.16857 15.4501 6.37136 15.4501 5.46253C15.451 4.51253 14.7418 3.68445 13.7635 3.49365C13.4252 3.42795 13.2068 3.11365 13.2768 2.79303C13.3452 2.47161 13.6752 2.26103 14.0143 2.3307C15.5718 2.6347 16.701 3.95203 16.701 5.46253C16.701 6.90732 15.6743 8.17795 14.2052 8.55082C14.1518 8.56428 14.0968 8.57061 14.0443 8.57061Z" fill="black"/>
<path d="M15.8277 14.2655C15.8952 14.5386 16.1518 14.7231 16.4352 14.7231C16.4827 14.7231 16.531 14.7183 16.5793 14.7072C17.5702 14.4856 18.291 13.6947 18.291 12.8262C18.291 11.459 16.5285 10.2137 14.5935 10.2137C14.2485 10.2137 13.9685 10.4797 13.9685 10.8075C13.9685 11.1352 14.2485 11.4012 14.5935 11.4012C15.9443 11.4012 17.041 12.2642 17.041 12.8262C17.041 13.1009 16.761 13.4469 16.2927 13.5514C15.9568 13.6258 15.7485 13.9464 15.8277 14.2655Z" fill="black"/>
</g>
</g>
</svg>
