<svg width="24" height="24" viewBox="0 0 24 24" fill="none" xmlns="http://www.w3.org/2000/svg">
<path d="M11.7832 7.04997C11.5071 7.04997 11.2832 7.27387 11.2832 7.54997V13.4136C11.2832 13.6898 11.5071 13.9136 11.7832 13.9136H12.2166C12.4928 13.9136 12.7166 13.6898 12.7166 13.4136V7.54997C12.7166 7.27387 12.4928 7.04997 12.2166 7.04997H11.7832Z" fill="#F9837C"/>
<path d="M12.0057 15.5498C11.7564 15.5498 11.5423 15.6329 11.3633 15.7991C11.1875 15.9684 11.0996 16.1698 11.0996 16.4031C11.0996 16.6396 11.1875 16.841 11.3633 17.0072C11.5423 17.1765 11.7564 17.2612 12.0057 17.2612C12.255 17.2612 12.4675 17.1765 12.6433 17.0072C12.8223 16.841 12.9118 16.6396 12.9118 16.4031C12.9118 16.1698 12.8223 15.9684 12.6433 15.7991C12.4675 15.6329 12.255 15.5498 12.0057 15.5498Z" fill="#F9837C"/>
<path fill-rule="evenodd" clip-rule="evenodd" d="M22 12C22 6.4772 17.5228 2 12 2C6.47715 2 2 6.4772 2 12C2 17.5229 6.47715 22 12 22C17.5228 22 22 17.5229 22 12ZM20.5 12C20.5 7.3056 16.6944 3.5 12 3.5C7.30558 3.5 3.5 7.3056 3.5 12C3.5 16.6944 7.30558 20.5 12 20.5C16.6944 20.5 20.5 16.6944 20.5 12Z" fill="#F9837C"/>
</svg>
