<svg width="19" height="16" viewBox="0 0 19 16" fill="none" xmlns="http://www.w3.org/2000/svg">
<g id="ic_domain">
<path id="Shape" fill-rule="evenodd" clip-rule="evenodd" d="M9.43377 4.66667V2H2.26013V14H16.6074V4.66667H9.43377ZM5.12924 12.6667H3.69451V11.3333H5.12924V12.6667ZM5.12924 10H3.69451V8.66667H5.12924V10ZM5.12924 7.33333H3.69451V6H5.12924V7.33333ZM5.12924 4.66667H3.69451V3.33333H5.12924V4.66667ZM7.99904 12.6667H6.56431V11.3333H7.99904V12.6667ZM7.99904 10H6.56431V8.66667H7.99904V10ZM7.99904 7.33333H6.56431V6H7.99904V7.33333ZM7.99904 4.66667H6.56431V3.33333H7.99904V4.66667ZM15.1725 12.6667H9.43359V11.3333H10.8683V10H9.43359V8.66667H10.8683V7.33333H9.43359V6H15.1725V12.6667ZM13.7376 7.33333H12.3029V8.66667H13.7376V7.33333ZM13.7376 10H12.3029V11.3333H13.7376V10Z" fill="#898989"/>
</g>
</svg>