<svg width="20" height="16" viewBox="0 0 20 16" fill="none" xmlns="http://www.w3.org/2000/svg">
<g clip-path="url(#clip0_553_963)">
<path d="M5.16739 1.66699C5.16739 1.53438 5.11471 1.40721 5.02094 1.31344C4.92717 1.21967 4.79999 1.16699 4.66739 1.16699C4.53478 1.16699 4.4076 1.21967 4.31383 1.31344C4.22006 1.40721 4.16739 1.53438 4.16739 1.66699V2.72033C3.20739 2.79699 2.57805 2.98499 2.11539 3.44833C1.65205 3.91099 1.46405 4.54099 1.38672 5.50033H14.6147C14.5374 4.54033 14.3494 3.91099 13.8861 3.44833C13.4234 2.98499 12.7934 2.79699 11.8341 2.71966V1.66699C11.8341 1.53438 11.7814 1.40721 11.6876 1.31344C11.5938 1.21967 11.4667 1.16699 11.3341 1.16699C11.2014 1.16699 11.0743 1.21967 10.9805 1.31344C10.8867 1.40721 10.8341 1.53438 10.8341 1.66699V2.67566C10.3907 2.66699 9.89338 2.66699 9.33405 2.66699H6.66739C6.10805 2.66699 5.61072 2.66699 5.16739 2.67566V1.66699Z" fill="#898989"/>
<path fill-rule="evenodd" clip-rule="evenodd" d="M14.6673 8C14.6673 7.44067 14.6673 6.94333 14.6587 6.5H1.34265C1.33398 6.94333 1.33398 7.44067 1.33398 8V9.33333C1.33398 11.8473 1.33398 13.1047 2.11532 13.8853C2.89598 14.6667 4.15332 14.6667 6.66732 14.6667H9.33398C11.848 14.6667 13.1053 14.6667 13.886 13.8853C14.6673 13.1047 14.6673 11.8473 14.6673 9.33333V8ZM9.33398 8.16667C9.02457 8.16667 8.72782 8.28958 8.50903 8.50838C8.29023 8.72717 8.16732 9.02391 8.16732 9.33333V10.6667C8.16732 10.9761 8.29023 11.2728 8.50903 11.4916C8.72782 11.7104 9.02457 11.8333 9.33398 11.8333C9.6434 11.8333 9.94015 11.7104 10.1589 11.4916C10.3777 11.2728 10.5007 10.9761 10.5007 10.6667V9.33333C10.5007 9.02391 10.3777 8.72717 10.1589 8.50838C9.94015 8.28958 9.6434 8.16667 9.33398 8.16667ZM9.33398 9.16667C9.28978 9.16667 9.24739 9.18423 9.21613 9.21548C9.18488 9.24674 9.16732 9.28913 9.16732 9.33333V10.6667C9.16732 10.7109 9.18488 10.7533 9.21613 10.7845C9.24739 10.8158 9.28978 10.8333 9.33398 10.8333C9.37819 10.8333 9.42058 10.8158 9.45184 10.7845C9.48309 10.7533 9.50065 10.7109 9.50065 10.6667V9.33333C9.50065 9.28913 9.48309 9.24674 9.45184 9.21548C9.42058 9.18423 9.37819 9.16667 9.33398 9.16667ZM7.19198 8.20467C7.28336 8.24251 7.36146 8.30661 7.4164 8.38884C7.47134 8.47108 7.50066 8.56776 7.50065 8.66667V11.3333C7.50065 11.4659 7.44797 11.5931 7.3542 11.6869C7.26044 11.7807 7.13326 11.8333 7.00065 11.8333C6.86804 11.8333 6.74087 11.7807 6.6471 11.6869C6.55333 11.5931 6.50065 11.4659 6.50065 11.3333V9.87333L6.35398 10.02C6.2592 10.1083 6.13384 10.1564 6.0043 10.1541C5.87477 10.1518 5.75118 10.0994 5.65957 10.0077C5.56796 9.91614 5.51549 9.79255 5.5132 9.66301C5.51092 9.53348 5.559 9.40812 5.64732 9.31333L6.64732 8.31333C6.71719 8.24341 6.80623 8.19576 6.90318 8.17642C7.00012 8.15708 7.10062 8.16691 7.19198 8.20467Z" fill="#898989"/>
</g>
<defs>
<clipPath id="clip0_553_963">
<rect width="16" height="16" fill="white"/>
</clipPath>
</defs>
</svg>
