<svg width="18" height="18" viewBox="0 0 18 18" fill="none" xmlns="http://www.w3.org/2000/svg">
<g id="Calendar">
<path id="Stroke 1 (Stroke)" fill-rule="evenodd" clip-rule="evenodd" d="M2.97099 3.9856C1.86967 5.01253 1.3467 6.73063 1.3467 9.60771C1.3467 12.4848 1.86967 14.2029 2.97099 15.2298C4.07232 16.2568 5.91474 16.7443 8.99955 16.7443C12.0848 16.7443 13.9275 16.2568 15.0289 15.2298C16.1303 14.2029 16.6533 12.4848 16.6533 9.60771C16.6533 6.73063 16.1303 5.01254 15.0289 3.98562C13.9275 2.95866 12.0848 2.47118 8.99955 2.47118C5.91474 2.47118 4.07232 2.95866 2.97099 3.9856ZM2.01877 3.09755C3.51948 1.6982 5.84016 1.21533 8.99955 1.21533C12.1594 1.21533 14.4803 1.69819 15.9811 3.09753C17.482 4.49689 18 6.66103 18 9.60771C18 12.5544 17.482 14.7185 15.9811 16.1179C14.4803 17.5172 12.1594 18.0001 8.99955 18.0001C5.84016 18.0001 3.51948 17.5172 2.01877 16.1179C0.518035 14.7185 0 12.5544 0 9.60771C0 6.66103 0.518035 4.49691 2.01877 3.09755Z" fill="black"/>
<path id="Stroke 3 (Stroke)" fill-rule="evenodd" clip-rule="evenodd" d="M0.24707 6.71777C0.24707 6.37097 0.548539 6.08984 0.920421 6.08984H17.088C17.4599 6.08984 17.7614 6.37097 17.7614 6.71777C17.7614 7.06456 17.4599 7.34569 17.088 7.34569H0.920421C0.548539 7.34569 0.24707 7.06456 0.24707 6.71777Z" fill="black"/>
<path id="Stroke 5 (Stroke)" fill-rule="evenodd" clip-rule="evenodd" d="M12.2803 10.014C12.2803 9.66724 12.5817 9.38611 12.9536 9.38611H12.9617C13.3336 9.38611 13.6351 9.66724 13.6351 10.014C13.6351 10.3608 13.3336 10.642 12.9617 10.642H12.9536C12.5817 10.642 12.2803 10.3608 12.2803 10.014Z" fill="black"/>
<path id="Stroke 7 (Stroke)" fill-rule="evenodd" clip-rule="evenodd" d="M8.33105 10.014C8.33105 9.66724 8.63252 9.38611 9.0044 9.38611H9.01249C9.38437 9.38611 9.68584 9.66724 9.68584 10.014C9.68584 10.3608 9.38437 10.642 9.01249 10.642H9.0044C8.63252 10.642 8.33105 10.3608 8.33105 10.014Z" fill="black"/>
<path id="Stroke 9 (Stroke)" fill-rule="evenodd" clip-rule="evenodd" d="M4.37402 10.014C4.37402 9.66724 4.67549 9.38611 5.04737 9.38611H5.05545C5.42733 9.38611 5.7288 9.66724 5.7288 10.014C5.7288 10.3608 5.42733 10.642 5.05545 10.642H5.04737C4.67549 10.642 4.37402 10.3608 4.37402 10.014Z" fill="black"/>
<path id="Stroke 11 (Stroke)" fill-rule="evenodd" clip-rule="evenodd" d="M12.2803 13.239C12.2803 12.8922 12.5817 12.6111 12.9536 12.6111H12.9617C13.3336 12.6111 13.6351 12.8922 13.6351 13.239C13.6351 13.5858 13.3336 13.8669 12.9617 13.8669H12.9536C12.5817 13.8669 12.2803 13.5858 12.2803 13.239Z" fill="black"/>
<path id="Stroke 13 (Stroke)" fill-rule="evenodd" clip-rule="evenodd" d="M8.33105 13.239C8.33105 12.8922 8.63252 12.6111 9.0044 12.6111H9.01249C9.38437 12.6111 9.68584 12.8922 9.68584 13.239C9.68584 13.5858 9.38437 13.8669 9.01249 13.8669H9.0044C8.63252 13.8669 8.33105 13.5858 8.33105 13.239Z" fill="black"/>
<path id="Stroke 15 (Stroke)" fill-rule="evenodd" clip-rule="evenodd" d="M4.37402 13.239C4.37402 12.8922 4.67549 12.6111 5.04737 12.6111H5.05545C5.42733 12.6111 5.7288 12.8922 5.7288 13.239C5.7288 13.5858 5.42733 13.8669 5.05545 13.8669H5.04737C4.67549 13.8669 4.37402 13.5858 4.37402 13.239Z" fill="black"/>
<path id="Stroke 17 (Stroke)" fill-rule="evenodd" clip-rule="evenodd" d="M12.5991 0C12.971 0 13.2725 0.28113 13.2725 0.627922V3.35896C13.2725 3.70575 12.971 3.98688 12.5991 3.98688C12.2273 3.98688 11.9258 3.70575 11.9258 3.35896V0.627922C11.9258 0.28113 12.2273 0 12.5991 0Z" fill="black"/>
<path id="Stroke 19 (Stroke)" fill-rule="evenodd" clip-rule="evenodd" d="M5.4087 0C5.78058 0 6.08205 0.28113 6.08205 0.627922V3.35896C6.08205 3.70575 5.78058 3.98688 5.4087 3.98688C5.03682 3.98688 4.73535 3.70575 4.73535 3.35896V0.627922C4.73535 0.28113 5.03682 0 5.4087 0Z" fill="black"/>
</g>
</svg>
