<svg width="22" height="22" viewBox="0 0 22 22" fill="none" xmlns="http://www.w3.org/2000/svg">
<g id="Chart">
<path id="Stroke 1 (Stroke)" fill-rule="evenodd" clip-rule="evenodd" d="M6.48315 8.51099C6.89737 8.51099 7.23315 8.84677 7.23315 9.26099V15.9547C7.23315 16.3689 6.89737 16.7047 6.48315 16.7047C6.06894 16.7047 5.73315 16.3689 5.73315 15.9547V9.26099C5.73315 8.84677 6.06894 8.51099 6.48315 8.51099Z" fill="black"/>
<path id="Stroke 2 (Stroke)" fill-rule="evenodd" clip-rule="evenodd" d="M11.0369 5.30737C11.4511 5.30737 11.7869 5.64316 11.7869 6.05737V15.9553C11.7869 16.3695 11.4511 16.7053 11.0369 16.7053C10.6227 16.7053 10.2869 16.3695 10.2869 15.9553V6.05737C10.2869 5.64316 10.6227 5.30737 11.0369 5.30737Z" fill="black"/>
<path id="Stroke 3 (Stroke)" fill-rule="evenodd" clip-rule="evenodd" d="M15.5157 12.0483C15.93 12.0483 16.2657 12.3841 16.2657 12.7983V15.9552C16.2657 16.3694 15.93 16.7052 15.5157 16.7052C15.1015 16.7052 14.7657 16.3694 14.7657 15.9552V12.7983C14.7657 12.3841 15.1015 12.0483 15.5157 12.0483Z" fill="black"/>
<path id="Stroke 4 (Stroke)" fill-rule="evenodd" clip-rule="evenodd" d="M3.96051 3.96051C2.66147 5.25956 2.05005 7.42744 2.05005 11.0369C2.05005 14.6463 2.66147 16.8142 3.96051 18.1133C5.25956 19.4123 7.42744 20.0237 11.0369 20.0237C14.6463 20.0237 16.8142 19.4123 18.1133 18.1133C19.4123 16.8142 20.0237 14.6463 20.0237 11.0369C20.0237 7.42744 19.4123 5.25956 18.1133 3.96051C16.8142 2.66147 14.6463 2.05005 11.0369 2.05005C7.42744 2.05005 5.25956 2.66147 3.96051 3.96051ZM2.89985 2.89985C4.6437 1.156 7.34424 0.550049 11.0369 0.550049C14.7295 0.550049 17.4301 1.156 19.1739 2.89985C20.9178 4.6437 21.5237 7.34424 21.5237 11.0369C21.5237 14.7295 20.9178 17.4301 19.1739 19.1739C17.4301 20.9178 14.7295 21.5237 11.0369 21.5237C7.34424 21.5237 4.6437 20.9178 2.89985 19.1739C1.156 17.4301 0.550049 14.7295 0.550049 11.0369C0.550049 7.34424 1.156 4.6437 2.89985 2.89985Z" fill="black"/>
</g>
</svg>
