<svg width="44" height="44" viewBox="0 0 44 44" fill="none" xmlns="http://www.w3.org/2000/svg">
<rect width="44" height="44" rx="9" fill="#F3F3F3"/>
<g clip-path="url(#clip0_1_243)">
<path fill-rule="evenodd" clip-rule="evenodd" d="M17.4832 19.511C17.8974 19.511 18.2332 19.8468 18.2332 20.261V26.9547C18.2332 27.3689 17.8974 27.7047 17.4832 27.7047C17.0689 27.7047 16.7332 27.3689 16.7332 26.9547V20.261C16.7332 19.8468 17.0689 19.511 17.4832 19.511Z" fill="#202020"/>
<path fill-rule="evenodd" clip-rule="evenodd" d="M22.0369 16.3074C22.4511 16.3074 22.7869 16.6432 22.7869 17.0574V26.9553C22.7869 27.3695 22.4511 27.7053 22.0369 27.7053C21.6227 27.7053 21.2869 27.3695 21.2869 26.9553V17.0574C21.2869 16.6432 21.6227 16.3074 22.0369 16.3074Z" fill="#202020"/>
<path fill-rule="evenodd" clip-rule="evenodd" d="M26.5157 23.0483C26.93 23.0483 27.2657 23.3841 27.2657 23.7983V26.9552C27.2657 27.3694 26.93 27.7052 26.5157 27.7052C26.1015 27.7052 25.7657 27.3694 25.7657 26.9552V23.7983C25.7657 23.3841 26.1015 23.0483 26.5157 23.0483Z" fill="#202020"/>
<path fill-rule="evenodd" clip-rule="evenodd" d="M14.9605 14.9605C13.6615 16.2596 13.05 18.4274 13.05 22.0369C13.05 25.6463 13.6615 27.8142 14.9605 29.1133C16.2596 30.4123 18.4274 31.0237 22.0369 31.0237C25.6463 31.0237 27.8142 30.4123 29.1133 29.1133C30.4123 27.8142 31.0237 25.6463 31.0237 22.0369C31.0237 18.4274 30.4123 16.2596 29.1133 14.9605C27.8142 13.6615 25.6463 13.05 22.0369 13.05C18.4274 13.05 16.2596 13.6615 14.9605 14.9605ZM13.8999 13.8999C15.6437 12.156 18.3442 11.55 22.0369 11.55C25.7295 11.55 28.4301 12.156 30.1739 13.8999C31.9178 15.6437 32.5237 18.3442 32.5237 22.0369C32.5237 25.7295 31.9178 28.4301 30.1739 30.1739C28.4301 31.9178 25.7295 32.5237 22.0369 32.5237C18.3442 32.5237 15.6437 31.9178 13.8999 30.1739C12.156 28.4301 11.55 25.7295 11.55 22.0369C11.55 18.3442 12.156 15.6437 13.8999 13.8999Z" fill="#202020"/>
</g>
<defs>
<clipPath id="clip0_1_243">
<rect width="24" height="24" fill="white" transform="translate(10 10)"/>
</clipPath>
</defs>
</svg>
