<svg width="20" height="20" viewBox="0 0 20 20" fill="none" xmlns="http://www.w3.org/2000/svg">
<g id="icon-X">
<path id="Vector" d="M16.2883 14.9615C16.4644 15.1376 16.5634 15.3765 16.5634 15.6256C16.5634 15.8746 16.4644 16.1135 16.2883 16.2896C16.1122 16.4657 15.8733 16.5647 15.6242 16.5647C15.3752 16.5647 15.1363 16.4657 14.9602 16.2896L10 11.3279L5.03831 16.2881C4.86219 16.4642 4.62332 16.5631 4.37425 16.5631C4.12517 16.5631 3.8863 16.4642 3.71018 16.2881C3.53406 16.1119 3.43512 15.8731 3.43512 15.624C3.43512 15.3749 3.53406 15.136 3.71018 14.9599L8.6719 9.99977L3.71175 5.03805C3.53563 4.86193 3.43668 4.62306 3.43668 4.37399C3.43668 4.12492 3.53563 3.88605 3.71175 3.70993C3.88787 3.53381 4.12674 3.43486 4.37581 3.43486C4.62488 3.43486 4.86375 3.53381 5.03987 3.70993L10 8.67165L14.9617 3.70915C15.1379 3.53303 15.3767 3.43408 15.6258 3.43408C15.8749 3.43408 16.1137 3.53303 16.2899 3.70915C16.466 3.88527 16.5649 4.12414 16.5649 4.37321C16.5649 4.62228 16.466 4.86115 16.2899 5.03727L11.3282 9.99977L16.2883 14.9615Z" fill="#202020"/>
</g>
</svg>
