<svg width="20" height="20" viewBox="0 0 20 20" fill="none" xmlns="http://www.w3.org/2000/svg">
<g id="close">
<path id="Vector" d="M14.7154 4.10736C15.0408 3.78193 15.5685 3.78192 15.8939 4.10736C16.2193 4.43279 16.2193 4.96043 15.8939 5.28587L11.1798 9.99996L15.8939 14.714C16.2193 15.0394 16.2193 15.567 15.8939 15.8925C15.5685 16.2179 15.0408 16.2179 14.7154 15.8925L10.0013 11.1785L5.28734 15.8925C5.28225 15.8975 5.27712 15.9025 5.27194 15.9075C4.94546 16.2178 4.42918 16.2128 4.10883 15.8925C3.86475 15.6484 3.80373 15.2905 3.92577 14.9896C3.96644 14.8893 4.02747 14.7953 4.10883 14.714L8.82284 9.99996L4.10883 5.28591C3.78339 4.96048 3.78339 4.43283 4.10883 4.1074C4.43426 3.78196 4.9619 3.78196 5.28734 4.1074L10.0013 8.82138L14.7154 4.10736Z" fill="#656D76"/>
</g>
</svg>
