<svg width="23" height="25" viewBox="0 0 23 25" fill="none" xmlns="http://www.w3.org/2000/svg">
<path id="Vector" d="M2.5 0.333252H0V2.98477H2.5V0.333252ZM20 5.63628H22.5V13.5908H20V8.2878H7.5V21.5454H12.5V24.1969H5V5.63628H20ZM5 0.333252H7.5V2.98477H5V0.333252ZM2.5 5.63628H0V8.2878H2.5V5.63628ZM0 10.9393H2.5V13.5908H0V10.9393ZM2.5 16.2423H0V18.8939H2.5V16.2423ZM10 0.333252H12.5V2.98477H10V0.333252ZM17.5 0.333252H15V2.98477H17.5V0.333252ZM15 18.8939V16.2423H22.5V18.8939H20V21.5454H17.5V24.1969H15V18.8939ZM20 21.5454V24.1969H22.5V21.5454H20Z" fill="#D9D9D9"/>
</svg>
