<svg xmlns="http://www.w3.org/2000/svg" width="20" height="20" viewBox="0 0 20 20" fill="none">
  <path fill-rule="evenodd" clip-rule="evenodd" d="M2.93077 2.27249C4.46261 0.582932 6.83849 0 10.0401 0C10.9668 0 11.8216 0.0514172 12.5919 0.156939C12.748 0.178315 12.8933 0.248275 13.0074 0.356897L18.6774 5.7569C18.7925 5.86656 18.8698 6.00998 18.8982 6.16645C19.0985 7.27377 19.1901 8.55106 19.1901 10C19.1901 13.4998 18.6714 16.0653 17.1578 17.7318C15.6244 19.42 13.2458 20 10.0401 20C6.83922 20 4.46308 19.4199 2.93099 17.7315C1.41887 16.0651 0.900146 13.4999 0.900146 10C0.900146 6.5048 1.41898 3.93992 2.93077 2.27249ZM4.04202 3.28001C2.93131 4.50508 2.40015 6.5652 2.40015 10C2.40015 13.4401 2.93143 15.4999 4.04181 16.7235C5.13222 17.9251 6.95107 18.5 10.0401 18.5C13.1345 18.5 14.9559 17.925 16.0475 16.7232C17.1588 15.4997 17.6901 13.4402 17.6901 10C17.6901 8.7185 17.6151 7.61383 17.4629 6.67165L12.1511 1.61282C11.5202 1.53823 10.8149 1.5 10.0401 1.5C6.95181 1.5 5.13268 2.07707 4.04202 3.28001Z" fill="black"/>
  <path fill-rule="evenodd" clip-rule="evenodd" d="M11.9341 0.0827637C12.3483 0.0827637 12.6841 0.41855 12.6841 0.832764V3.49376C12.6841 4.93726 13.854 6.10676 15.2981 6.10676H18.2491C18.6633 6.10676 18.9991 6.44255 18.9991 6.85676C18.9991 7.27098 18.6633 7.60676 18.2491 7.60676H15.2981C13.0262 7.60676 11.1841 5.76627 11.1841 3.49376V0.832764C11.1841 0.41855 11.5199 0.0827637 11.9341 0.0827637Z" fill="black"/>
  <path fill-rule="evenodd" clip-rule="evenodd" d="M6.66248 10.9807C6.66248 10.5665 6.99826 10.2307 7.41248 10.2307H12.3125C12.7267 10.2307 13.0625 10.5665 13.0625 10.9807C13.0625 11.3949 12.7267 11.7307 12.3125 11.7307H7.41248C6.99826 11.7307 6.66248 11.3949 6.66248 10.9807Z" fill="black"/>
  <path fill-rule="evenodd" clip-rule="evenodd" d="M9.86328 7.78076C10.2775 7.78076 10.6133 8.11655 10.6133 8.53076V13.4308C10.6133 13.845 10.2775 14.1808 9.86328 14.1808C9.44907 14.1808 9.11328 13.845 9.11328 13.4308V8.53076C9.11328 8.11655 9.44907 7.78076 9.86328 7.78076Z" fill="black"/>
</svg>