<svg width="44" height="45" viewBox="0 0 44 45" fill="none" xmlns="http://www.w3.org/2000/svg">
<rect y="0.693359" width="44" height="43.5896" rx="9" fill="#F3F3F3"/>
<g clip-path="url(#clip0_1_237)">
<path fill-rule="evenodd" clip-rule="evenodd" d="M14.9308 14.2725C16.4626 12.5829 18.8385 12 22.0401 12C22.9668 12 23.8216 12.0514 24.5919 12.1569C24.748 12.1783 24.8933 12.2483 25.0074 12.3569L30.6774 17.7569C30.7925 17.8666 30.8698 18.01 30.8982 18.1665C31.0985 19.2738 31.1901 20.5511 31.1901 22C31.1901 25.4998 30.6714 28.0653 29.1578 29.7318C27.6244 31.42 25.2458 32 22.0401 32C18.8392 32 16.4631 31.4199 14.931 29.7315C13.4189 28.0651 12.9001 25.4999 12.9001 22C12.9001 18.5048 13.419 15.9399 14.9308 14.2725ZM16.042 15.28C14.9313 16.5051 14.4001 18.5652 14.4001 22C14.4001 25.4401 14.9314 27.4999 16.0418 28.7235C17.1322 29.9251 18.9511 30.5 22.0401 30.5C25.1345 30.5 26.9559 29.925 28.0475 28.7232C29.1588 27.4997 29.6901 25.4402 29.6901 22C29.6901 20.7185 29.6151 19.6138 29.4629 18.6717L24.1511 13.6128C23.5202 13.5382 22.8149 13.5 22.0401 13.5C18.9518 13.5 17.1327 14.0771 16.042 15.28Z" fill="#202020"/>
<path fill-rule="evenodd" clip-rule="evenodd" d="M23.9341 12.0828C24.3483 12.0828 24.6841 12.4186 24.6841 12.8328V15.4938C24.6841 16.9373 25.854 18.1068 27.2981 18.1068H30.2491C30.6633 18.1068 30.9991 18.4426 30.9991 18.8568C30.9991 19.271 30.6633 19.6068 30.2491 19.6068H27.2981C25.0262 19.6068 23.1841 17.7663 23.1841 15.4938V12.8328C23.1841 12.4186 23.5199 12.0828 23.9341 12.0828Z" fill="#202020"/>
<path fill-rule="evenodd" clip-rule="evenodd" d="M18.6625 22.9807C18.6625 22.5665 18.9983 22.2307 19.4125 22.2307H24.3125C24.7267 22.2307 25.0625 22.5665 25.0625 22.9807C25.0625 23.3949 24.7267 23.7307 24.3125 23.7307H19.4125C18.9983 23.7307 18.6625 23.3949 18.6625 22.9807Z" fill="#202020"/>
<path fill-rule="evenodd" clip-rule="evenodd" d="M21.8633 19.7808C22.2775 19.7808 22.6133 20.1165 22.6133 20.5308V25.4308C22.6133 25.845 22.2775 26.1808 21.8633 26.1808C21.4491 26.1808 21.1133 25.845 21.1133 25.4308V20.5308C21.1133 20.1165 21.4491 19.7808 21.8633 19.7808Z" fill="#202020"/>
</g>
<defs>
<clipPath id="clip0_1_237">
<rect width="24" height="23.7761" fill="white" transform="translate(10 10.6006)"/>
</clipPath>
</defs>
</svg>
