<svg width="44" height="44" viewBox="0 0 44 44" fill="none" xmlns="http://www.w3.org/2000/svg">
<rect width="44" height="44" rx="9" fill="#F3F3F3"/>
<g clip-path="url(#clip0_692_1119)">
<path d="M27.6314 20.6995H27.6564C28.0584 20.6995 28.3914 20.3805 28.4054 19.9745C28.4644 18.2295 27.4234 16.9465 25.8154 16.7815C25.4114 16.7475 25.0354 17.0385 24.9924 17.4505C24.9504 17.8625 25.2504 18.2305 25.6624 18.2735C26.4734 18.3565 26.9384 18.9735 26.9064 19.9245C26.8924 20.3385 27.2174 20.6855 27.6314 20.6995Z" fill="#202020"/>
<path fill-rule="evenodd" clip-rule="evenodd" d="M12.1593 22.639C13.9533 28.223 19.9463 31.236 22.0023 31.236C24.0733 31.236 30.0863 28.222 31.8423 22.638C32.9923 19.046 31.7173 14.358 27.6513 13.048C25.9193 12.493 23.5463 12.697 21.9803 14.29C20.5293 12.896 18.3733 12.393 16.3423 13.049C12.2803 14.356 11.0073 19.045 12.1583 22.638L12.1593 22.639ZM22.0023 29.736C20.8173 29.736 15.2343 27.306 13.5873 22.181C12.6563 19.273 13.6203 15.501 16.8023 14.476C18.1933 14.027 20.2253 14.279 21.3943 15.893C21.5393 16.092 21.7713 16.192 22.0183 16.202C22.2643 16.197 22.4923 16.071 22.6283 15.866C23.6943 14.248 25.7423 14.012 27.1923 14.476C30.3773 15.502 31.3433 19.274 30.4123 22.184C28.8013 27.307 23.1963 29.736 22.0023 29.736Z" fill="#202020"/>
</g>
<defs>
<clipPath id="clip0_692_1119">
<rect width="24" height="24" fill="white" transform="translate(10 10)"/>
</clipPath>
</defs>
</svg>
