<svg width="24" height="24" viewBox="0 0 24 24" fill="none" xmlns="http://www.w3.org/2000/svg">
<g id="Iconly/Curved/Outline/Heart">
<g id="Union">
<path d="M17.6314 10.6995H17.6564C18.0584 10.6995 18.3914 10.3805 18.4054 9.97451C18.4644 8.22951 17.4234 6.94651 15.8154 6.78151C15.4114 6.74751 15.0354 7.03851 14.9924 7.45051C14.9504 7.86251 15.2504 8.23051 15.6624 8.27351C16.4734 8.35651 16.9384 8.97351 16.9064 9.92451C16.8924 10.3385 17.2174 10.6855 17.6314 10.6995Z" fill="black"/>
<path fill-rule="evenodd" clip-rule="evenodd" d="M2.15932 12.639C3.95332 18.223 9.94632 21.236 12.0023 21.236C14.0733 21.236 20.0863 18.222 21.8423 12.638C22.9923 9.04603 21.7173 4.35803 17.6513 3.04803C15.9193 2.49303 13.5463 2.69703 11.9803 4.29003C10.5293 2.89603 8.37332 2.39303 6.34232 3.04903C2.28032 4.35603 1.00732 9.04503 2.15832 12.638L2.15932 12.639ZM12.0023 19.736C10.8173 19.736 5.23432 17.306 3.58732 12.181C2.65632 9.27303 3.62032 5.50103 6.80232 4.47603C8.19332 4.02703 10.2253 4.27903 11.3943 5.89303C11.5393 6.09203 11.7713 6.19203 12.0183 6.20203C12.2643 6.19703 12.4923 6.07103 12.6283 5.86603C13.6943 4.24803 15.7423 4.01203 17.1923 4.47603C20.3773 5.50203 21.3433 9.27403 20.4123 12.184C18.8013 17.307 13.1963 19.736 12.0023 19.736Z" fill="black"/>
</g>
</g>
</svg>
