<svg width="24" height="24" viewBox="0 0 24 24" fill="none" xmlns="http://www.w3.org/2000/svg">
<path d="M11.7832 16.95C11.5071 16.95 11.2832 16.7261 11.2832 16.45V10.5864C11.2832 10.3102 11.5071 10.0864 11.7832 10.0864H12.2166C12.4928 10.0864 12.7166 10.3102 12.7166 10.5864V16.45C12.7166 16.7261 12.4928 16.95 12.2166 16.95H11.7832Z" fill="#202020"/>
<path d="M12.0057 8.45024C11.7564 8.45024 11.5423 8.36714 11.3633 8.20095C11.1875 8.03156 11.0996 7.83021 11.0996 7.5969C11.0996 7.3604 11.1875 7.15905 11.3633 6.99285C11.5423 6.82346 11.7564 6.73877 12.0057 6.73877C12.255 6.73877 12.4675 6.82346 12.6433 6.99285C12.8223 7.15905 12.9118 7.3604 12.9118 7.5969C12.9118 7.83021 12.8223 8.03156 12.6433 8.20095C12.4675 8.36714 12.255 8.45024 12.0057 8.45024Z" fill="#202020"/>
<path fill-rule="evenodd" clip-rule="evenodd" d="M22 12C22 17.5228 17.5228 22 12 22C6.47715 22 2 17.5228 2 12C2 6.47715 6.47715 2 12 2C17.5228 2 22 6.47715 22 12ZM20.5 12C20.5 16.6944 16.6944 20.5 12 20.5C7.30558 20.5 3.5 16.6944 3.5 12C3.5 7.30558 7.30558 3.5 12 3.5C16.6944 3.5 20.5 7.30558 20.5 12Z" fill="#202020"/>
</svg>
