<svg width="15" height="15" viewBox="0 0 15 15" fill="none" xmlns="http://www.w3.org/2000/svg">
<path fill-rule="evenodd" clip-rule="evenodd" d="M1.25 0C0.559642 0 0 0.559642 0 1.25V13.75C0 14.4403 0.559642 15 1.25 15H13.75C14.4403 15 15 14.4403 15 13.75V1.25C15 0.559642 14.4403 0 13.75 0H1.25ZM4.60063 3.3356C4.60532 4.13247 4.00884 4.62349 3.30102 4.61997C2.63422 4.61646 2.05298 4.0856 2.05649 3.33677C2.06001 2.63247 2.61665 2.06646 3.3397 2.08287C4.07329 2.09928 4.60532 2.63717 4.60063 3.3356ZM7.73308 5.6348H5.63309H5.63192V12.768H7.85142V12.6016C7.85142 12.285 7.85117 11.9683 7.85092 11.6516C7.85025 10.8067 7.8495 9.961 7.85383 9.11642C7.855 8.91133 7.86433 8.69808 7.91708 8.50233C8.11508 7.77108 8.77258 7.29883 9.50617 7.41492C9.97725 7.48867 10.2889 7.76175 10.4202 8.20592C10.5011 8.48358 10.5374 8.78242 10.5409 9.07192C10.5504 9.94492 10.5491 10.8179 10.5477 11.691C10.5472 11.9992 10.5467 12.3075 10.5467 12.6157V12.7668H12.7733V12.5958C12.7733 12.2191 12.7732 11.8425 12.7729 11.4659C12.7725 10.5247 12.772 9.58342 12.7745 8.64183C12.7757 8.21642 12.73 7.79692 12.6257 7.38558C12.4698 6.77383 12.1476 6.26758 11.6237 5.902C11.2522 5.64183 10.8444 5.47425 10.3886 5.4555C10.3367 5.45334 10.2843 5.45052 10.2317 5.44768C9.99867 5.43508 9.76175 5.42228 9.53892 5.46722C8.90142 5.59495 8.34133 5.88675 7.91825 6.40117C7.86908 6.46017 7.821 6.52008 7.74925 6.6095L7.73308 6.62975V5.6348ZM2.2347 12.7703H4.44368V5.63944H2.2347V12.7703Z" fill="#676666"/>
</svg>
