<?xml version="1.0" standalone="no"?>
<!DOCTYPE svg PUBLIC "-//W3C//DTD SVG 20010904//EN"
 "http://www.w3.org/TR/2001/REC-SVG-20010904/DTD/svg10.dtd">
<svg version="1.0" xmlns="http://www.w3.org/2000/svg"
 width="800" height="800" viewBox="0 0 800 800"
 preserveAspectRatio="xMidYMid meet">

<g transform="translate(0,800) scale(0.1,-0.1)"
fill="#000000" stroke="none">
  <path d="M3284 6035 c-657 -100 -1215 -461 -1576 -1015 -66 -102 -178 -336 -223
  -469 -154 -455 -153 -946 4 -1422 251 -751 912 -1315 1707 -1460 186 -35 583
  -35 772 0 857 160 1542 800 1755 1643 226 894 -141 1844 -912 2358 -241 161
  -565 292 -835 340 -178 33 -536 41 -692 25z m53 -1522 c98 -38 212 -137 265
  -230 l40 -70 39 62 c109 186 322 297 572 297 287 0 506 -127 614 -355 l48 -100
  4 -482 c4 -470 4 -481 -28 -511 -35 -34 -100 -38 -141 -8 -26 18 -28 37 -35 492
  l-6 474 -46 80 c-49 85 -102 132 -200 183 -53 28 -88 34 -217 34 -129 0 -164 -6
  -225 -33 -113 -49 -203 -127 -257 -215 l-50 -83 -5 -414 c-5 -396 -5 -415 -30
  -446 -32 -40 -86 -47 -129 -18 -28 19 -29 28 -35 472 -6 419 -7 455 -35 533 -39
  101 -134 194 -231 227 -213 71 -476 -48 -576 -262 l-37 -74 -6 -448 c-6 -448 -6
  -450 -43 -481 -42 -34 -88 -37 -131 -10 l-33 22 0 716 c0 795 -3 774 98 774 72
  0 96 -36 101 -159 l4 -106 36 58 c47 75 170 165 280 202 123 40 363 35 490 -12z"
  fill="#FFFFFF"/>
</g>
</svg>
