<?xml version="1.0" encoding="UTF-8"?>
<svg version="1.1" xmlns="http://www.w3.org/2000/svg" width="500" height="500">
<path d="M0 0 C165 0 330 0 500 0 C500 165 500 330 500 500 C335 500 170 500 0 500 C0 335 0 170 0 0 Z " fill="#000000" transform="translate(0,0)"/>
<path d="M0 0 C165 0 330 0 500 0 C500 165 500 330 500 500 C335 500 170 500 0 500 C0 335 0 170 0 0 Z M196 24 C195.19320801 24.20818359 194.38641602 24.41636719 193.55517578 24.63085938 C189.2981661 25.73231719 185.10814507 26.96133639 180.9375 28.35400391 C178.96476389 29.01174833 176.98330209 29.63665189 175 30.26171875 C150.15567628 38.32790374 126.0998439 51.30995104 106 68 C105.45214844 68.44778809 104.90429688 68.89557617 104.33984375 69.35693359 C91.00088207 80.28409554 78.45705819 92.25265587 68 106 C67.58862793 106.52964355 67.17725586 107.05928711 66.75341797 107.60498047 C50.13636117 129.05407821 37.16676339 153.11001321 29 179 C28.77473633 179.7007666 28.54947266 180.4015332 28.31738281 181.12353516 C25.29752515 190.59020735 22.96660361 200.03305352 21.36219788 209.84318542 C21.09459447 211.4367092 20.80593864 213.02673049 20.50584412 214.61445618 C19.21742595 221.67887618 18.70498017 228.44477597 18.734375 235.6171875 C18.73246155 236.67680695 18.7305481 237.73642639 18.72857666 238.82815552 C18.72722627 241.05161784 18.7308418 243.27508835 18.73925781 245.49853516 C18.74995191 248.85988501 18.7393339 252.22069791 18.7265625 255.58203125 C18.71917512 266.58346808 18.94734782 277.16456467 21 288 C21.25209385 289.59753151 21.50346552 291.19517725 21.75390625 292.79296875 C32.53674784 353.65217344 69.39617939 406.46972383 119.33203125 441.796875 C153.82397928 465.74546389 196.10883638 480.87093271 238.2578125 481.23828125 C239.66495514 481.25304001 239.66495514 481.25304001 241.1005249 481.26809692 C269.98155582 481.50890646 295.41435253 479.09599273 323 470 C324.26384521 469.58427734 324.26384521 469.58427734 325.55322266 469.16015625 C366.91425407 455.29297267 405.44590453 428.85811472 432 394 C432.4340918 393.43168457 432.86818359 392.86336914 433.31542969 392.27783203 C461.31386586 355.43314398 481.00162711 309.67785711 481.203125 262.8515625 C481.20882507 261.79955658 481.21452515 260.74755066 481.22039795 259.66366577 C481.22980128 257.44326772 481.23636325 255.222856 481.24023438 253.00244141 C481.24987181 249.66933579 481.28091264 246.33686584 481.3125 243.00390625 C481.3770132 230.04266647 480.61608845 217.70401185 478 205 C477.69376709 203.48889648 477.69376709 203.48889648 477.38134766 201.94726562 C476.86619937 199.59410798 476.29942061 197.267147 475.6875 194.9375 C475.47512695 194.11572266 475.26275391 193.29394531 475.04394531 192.44726562 C464.09641286 151.04048829 442.58245303 115.68319547 413 85 C411.76056641 83.69869141 411.76056641 83.69869141 410.49609375 82.37109375 C396.98136512 68.46953925 380.76948277 57.56872849 364 48 C363.41702148 47.66258789 362.83404297 47.32517578 362.23339844 46.97753906 C344.09555354 36.55056709 324.23309265 29.17010298 304 24 C303.00967773 23.7417041 302.01935547 23.4834082 300.99902344 23.21728516 C268.23440435 15.10170897 228.57067231 15.0175753 196 24 Z " fill="#FEFEFE" transform="translate(0,0)"/>
<path d="M0 0 C1.33683838 -0.0141394 1.33683838 -0.0141394 2.70068359 -0.02856445 C15.78953157 0.03599063 28.44321244 4.55817625 38.3125 13.25 C38.91707031 13.77335938 39.52164063 14.29671875 40.14453125 14.8359375 C44.90623391 19.25529553 48.51197193 24.3822269 51.3125 30.25 C51.3125 31.24 51.3125 32.23 51.3125 33.25 C51.9725 33.25 52.6325 33.25 53.3125 33.25 C53.48265625 32.38955078 53.48265625 32.38955078 53.65625 31.51171875 C56.75949176 20.81661768 67.34496386 11.77443616 76.6953125 6.53125 C92.40347534 -1.15871628 112.83974184 -3.00922946 129.625 2.3125 C144.70313136 8.3912962 157.11542885 17.31438526 164.3125 32.25 C167.68278581 40.29100345 169.46324499 47.34664226 169.45776367 56.08203125 C169.46112228 56.85501556 169.4644809 57.62799988 169.46794128 58.42440796 C169.4774126 60.97045514 169.47939226 63.51643632 169.48046875 66.0625 C169.48368325 67.83699572 169.48704747 69.61149117 169.49055481 71.38598633 C169.49653598 75.10140599 169.49839567 78.81680242 169.49780273 82.53222656 C169.497701 87.29030898 169.51136931 92.04824256 169.52857494 96.80628967 C169.53969701 100.46944868 169.5417219 104.13257168 169.54119301 107.79574585 C169.54237219 109.5500032 169.54679051 111.3042615 169.55452538 113.0585022 C169.56433234 115.51176383 169.56144482 117.96470181 169.55541992 120.41796875 C169.56103943 121.14019623 169.56665894 121.86242371 169.57244873 122.60653687 C169.54765183 126.58386454 169.17573461 129.70821825 167.3125 133.25 C164.55477101 135.17807323 162.13927309 135.56803471 158.8125 135.625 C158.0596875 135.65335938 157.306875 135.68171875 156.53125 135.7109375 C153.34175962 135.0483321 152.30654227 133.80983418 150.3125 131.25 C149.92432408 128.66356967 149.77756583 126.50077152 149.81420898 123.91796875 C149.80593079 122.81946846 149.80593079 122.81946846 149.79748535 121.69877625 C149.78817127 120.11047036 149.78805537 118.52208979 149.79607964 116.93377686 C149.80873455 114.40941368 149.79739367 111.88614038 149.78004456 109.36181641 C149.75331825 104.90132237 149.74774881 100.44109522 149.74914551 95.98052979 C149.75137053 88.87046141 149.7368979 81.76072749 149.69355965 74.65078735 C149.68382109 72.18261714 149.69239167 69.71498433 149.70225525 67.24682617 C149.68419092 53.27635129 148.00480949 40.76753809 138.2734375 29.9921875 C127.90555362 20.06393121 116.17787346 18.68155461 102.453125 18.91015625 C89.75890734 19.47046879 80.15287747 25.9822997 71.625 34.9375 C62.08203834 46.36686106 60.02612272 58.53035548 60.00753975 72.90672874 C60.00384409 75.20665019 59.98703486 77.50615264 59.96678162 79.8059845 C59.91165 86.33892026 59.88062704 92.87191391 59.85620117 99.4050293 C59.84031237 103.41496788 59.81009272 107.42460121 59.77143669 111.43438148 C59.75981208 112.95694042 59.75385656 114.4795539 59.75375557 116.00215721 C59.75356312 118.12961103 59.73527325 120.2562223 59.71313477 122.38354492 C59.70806412 123.59185471 59.70299347 124.80016449 59.69776917 126.04508972 C59.27647095 129.54971224 58.41710628 131.44377131 56.3125 134.25 C54.04001762 135.38624119 52.52947236 135.51446843 50 135.625 C49.24074219 135.67398438 48.48148437 135.72296875 47.69921875 135.7734375 C44.04747492 134.97256406 42.64748023 133.10987895 40.3125 130.25 C39.70018005 126.85768127 39.70018005 126.85768127 39.71655273 122.92797852 C39.7124942 122.20846512 39.70843567 121.48895172 39.70425415 120.74763489 C39.69874836 119.18988084 39.70471344 117.63205277 39.72091484 116.07437325 C39.74643833 113.59543935 39.74150079 111.11816079 39.72901917 108.6391449 C39.70828638 103.36341418 39.72788824 98.08819668 39.75 92.8125 C39.77121746 86.72462352 39.77538678 80.63728778 39.74949837 74.54942131 C39.74618229 72.13098192 39.76721445 69.7136171 39.78990173 67.29530334 C39.82033616 52.21658253 36.94781182 40.10339107 26.76171875 28.48046875 C19.17662029 21.04594296 9.04174858 18.76871325 -1.25 18.6875 C-13.07271805 18.87408857 -22.2628416 22.08725962 -31.6875 29.25 C-32.71875 29.971875 -33.75 30.69375 -34.8125 31.4375 C-39.12139128 35.17187245 -42.03077729 40.27016131 -44.6875 45.25 C-45.02635727 45.87854385 -45.36521454 46.50708771 -45.71434021 47.15467834 C-49.21548357 54.58988333 -49.21946708 61.79420891 -49.14278984 69.82840729 C-49.12065817 72.25080061 -49.12469631 74.67196245 -49.13526917 77.09442139 C-49.15679128 83.10215758 -49.13954765 89.10960736 -49.11376953 95.11730957 C-49.09233894 100.21469455 -49.0904416 105.31128155 -49.11668587 110.40865326 C-49.12102012 112.78770843 -49.09646192 115.16535441 -49.07115173 117.54425049 C-49.07642364 119.00769673 -49.08314688 120.47113871 -49.09155273 121.93457031 C-49.08614975 123.20568665 -49.08074677 124.47680298 -49.07518005 125.78643799 C-49.88656442 130.37599949 -51.39987681 131.99553289 -54.6875 135.25 C-57.1875 136.046875 -57.1875 136.046875 -59.6875 136 C-60.925 136.02320313 -60.925 136.02320313 -62.1875 136.046875 C-65.92340134 134.85605645 -67.90084394 132.63086514 -69.6875 129.25 C-70.41807078 125.38247528 -70.36068019 121.57494118 -70.31860352 117.6484375 C-70.32575882 116.48677063 -70.33291412 115.32510376 -70.34028625 114.12823486 C-70.35717636 110.29342161 -70.33776673 106.45977676 -70.31640625 102.625 C-70.31723491 99.95750367 -70.31963891 97.29004777 -70.32371521 94.62255859 C-70.32823093 89.03404321 -70.31239918 83.4458631 -70.28442383 77.85742188 C-70.25237385 71.40546198 -70.2523891 64.95410662 -70.2696386 58.50210381 C-70.28552778 52.28381683 -70.2787549 46.06575052 -70.26170158 39.84747314 C-70.25651908 37.20648697 -70.25700238 34.56548339 -70.26324654 31.92449951 C-70.26869786 28.23313988 -70.24832358 24.54280535 -70.22094727 20.8515625 C-70.22747314 19.7604718 -70.23399902 18.6693811 -70.24072266 17.54522705 C-70.16446175 11.49638192 -69.7852586 7.82919195 -65.6875 3.25 C-62.58701072 1.69975536 -60.10855782 1.96007985 -56.6875 2.25 C-53.93420979 4.04562405 -52.16122539 5.30254922 -50.6875 8.25 C-50.4552354 10.96262116 -50.26813765 13.65773126 -50.125 16.375 C-50.08181641 17.12910156 -50.03863281 17.88320312 -49.99414062 18.66015625 C-49.8880168 20.52321888 -49.78724999 22.38658524 -49.6875 24.25 C-49.29820312 23.693125 -48.90890625 23.13625 -48.5078125 22.5625 C-40.47518642 11.60555382 -30.18496124 4.00070202 -16.8125 0.9375 C-11.2334074 0.08973629 -5.63250609 0.04538408 0 0 Z " fill="#E2E2E2" transform="translate(198.6875,176.75)"/>
</svg>
