<svg width="11" height="13" viewBox="0 0 11 13" fill="none" xmlns="http://www.w3.org/2000/svg">
<g id="edit" clip-path="url(#clip0_734_1319)">
<path id="Vector" d="M4.84082 2.16663H1.76009C1.52665 2.16663 1.30276 2.28076 1.13769 2.48393C0.972619 2.68709 0.879883 2.96264 0.879883 3.24996V10.8333C0.879883 11.1206 0.972619 11.3962 1.13769 11.5993C1.30276 11.8025 1.52665 11.9166 1.76009 11.9166H7.92155C8.155 11.9166 8.37888 11.8025 8.54395 11.5993C8.70902 11.3962 8.80176 11.1206 8.80176 10.8333V7.04163" stroke="#898989" stroke-width="1.2" stroke-linecap="round" stroke-linejoin="round"/>
<path id="Vector_2" d="M8.1416 1.35413C8.31669 1.13864 8.55415 1.01758 8.80176 1.01758C9.04936 1.01758 9.28683 1.13864 9.46191 1.35413C9.637 1.56962 9.73536 1.86188 9.73536 2.16663C9.73536 2.47137 9.637 2.76364 9.46191 2.97913L5.28092 8.12496L3.52051 8.66663L3.96061 6.49996L8.1416 1.35413Z" stroke="#898989" stroke-width="1.2" stroke-linecap="round" stroke-linejoin="round"/>
</g>
<defs>
<clipPath id="clip0_734_1319">
<rect width="10.5625" height="13" fill="white"/>
</clipPath>
</defs>
</svg>
