<svg width="17" height="16" viewBox="0 0 17 16" fill="none" xmlns="http://www.w3.org/2000/svg">
<g id="ic_domain">
<path id="Shape" fill-rule="evenodd" clip-rule="evenodd" d="M7.80726 4.66667V2H0.585205V14H15.0293V4.66667H7.80726ZM3.47367 12.6667H2.02926V11.3333H3.47367V12.6667ZM3.47367 10H2.02926V8.66667H3.47367V10ZM3.47367 7.33333H2.02926V6H3.47367V7.33333ZM3.47367 4.66667H2.02926V3.33333H3.47367V4.66667ZM6.36285 12.6667H4.91844V11.3333H6.36285V12.6667ZM6.36285 10H4.91844V8.66667H6.36285V10ZM6.36285 7.33333H4.91844V6H6.36285V7.33333ZM6.36285 4.66667H4.91844V3.33333H6.36285V4.66667ZM13.5847 12.6667H7.80708V11.3333H9.25149V10H7.80708V8.66667H9.25149V7.33333H7.80708V6H13.5847V12.6667ZM12.1401 7.33333H10.6957V8.66667H12.1401V7.33333ZM12.1401 10H10.6957V11.3333H12.1401V10Z" fill="#676666"/>
</g>
</svg>
