<svg width="16" height="16" viewBox="0 0 16 16" fill="none" xmlns="http://www.w3.org/2000/svg">
<path d="M8 1.0625C2.79725 1.0625 1.0625 2.79725 1.0625 8C1.0625 13.2027 2.79725 14.9375 8 14.9375C13.2027 14.9375 14.9375 13.2027 14.9375 8" stroke="black" stroke-width="1.5" stroke-linecap="round" stroke-linejoin="round"/>
<path fill-rule="evenodd" clip-rule="evenodd" d="M13.646 2.22779V2.22779C12.9013 1.56854 11.7635 1.63754 11.1043 2.38229C11.1043 2.38229 7.82753 6.08354 6.69128 7.36829C5.55353 8.65229 6.38753 10.426 6.38753 10.426C6.38753 10.426 8.26553 11.0208 9.38603 9.75479C10.5073 8.48879 13.8005 4.76954 13.8005 4.76954C14.4598 4.02479 14.39 2.88704 13.646 2.22779Z" stroke="black" stroke-width="1.5" stroke-linecap="round" stroke-linejoin="round"/>
<path d="M10.2568 3.35052L12.9531 5.73777" stroke="black" stroke-width="1.5" stroke-linecap="round" stroke-linejoin="round"/>
</svg>
