<svg width="17" height="15" viewBox="0 0 17 15" fill="none" xmlns="http://www.w3.org/2000/svg">
<path d="M6.48831 6.79375C6.41748 6.7875 6.33248 6.7875 6.25456 6.79375C4.56873 6.74375 3.22998 5.525 3.22998 4.025C3.22998 2.49375 4.63248 1.25 6.37498 1.25C8.1104 1.25 9.51998 2.49375 9.51998 4.025C9.5129 5.525 8.17415 6.74375 6.48831 6.79375Z" stroke="#787486" stroke-width="1.5" stroke-linecap="round" stroke-linejoin="round"/>
<path d="M11.6238 2.5C12.998 2.5 14.103 3.48125 14.103 4.6875C14.103 5.86875 13.0405 6.83125 11.7159 6.875C11.6592 6.86875 11.5955 6.86875 11.5317 6.875" stroke="#787486" stroke-width="1.5" stroke-linecap="round" stroke-linejoin="round"/>
<path d="M2.94676 9.1C1.23259 10.1125 1.23259 11.7625 2.94676 12.7687C4.89467 13.9187 8.08926 13.9187 10.0372 12.7687C11.7513 11.7562 11.7513 10.1063 10.0372 9.1C8.09634 7.95625 4.90176 7.95625 2.94676 9.1Z" stroke="#787486" stroke-width="1.5" stroke-linecap="round" stroke-linejoin="round"/>
<path d="M12.991 12.5C13.501 12.4062 13.9826 12.225 14.3793 11.9562C15.4843 11.225 15.4843 10.0187 14.3793 9.2875C13.9897 9.025 13.5151 8.85 13.0122 8.75" stroke="#787486" stroke-width="1.5" stroke-linecap="round" stroke-linejoin="round"/>
</svg>
