<svg width="44" height="44" viewBox="0 0 44 44" fill="none" xmlns="http://www.w3.org/2000/svg">
<rect width="44" height="44" rx="9" fill="#F3F3F3"/>
<g clip-path="url(#clip0_692_1118)">
<path fill-rule="evenodd" clip-rule="evenodd" d="M21.9729 22.1399H21.9989C24.5359 22.1399 26.5999 20.0769 26.5999 17.5409C26.5999 15.0039 24.5359 12.9409 21.9989 12.9409C19.4629 12.9409 17.3989 15.0039 17.3989 17.5389C17.3929 20.0679 19.4429 22.1319 21.9729 22.1399ZM18.8989 17.5409C18.8989 15.8319 20.2899 14.4409 21.9989 14.4409C23.7089 14.4409 25.0999 15.8319 25.0999 17.5409C25.0999 19.2499 23.7089 20.6399 21.9989 20.6399H21.9749C20.2739 20.6339 18.8949 19.2449 18.8989 17.5409Z" fill="#202020"/>
<path fill-rule="evenodd" clip-rule="evenodd" d="M15.2432 27.857C15.2432 31.059 20.3282 31.059 21.9992 31.059C23.6702 31.059 28.7552 31.059 28.7552 27.84C28.7552 25.413 25.7252 23.437 21.9992 23.437C18.2732 23.437 15.2432 25.419 15.2432 27.857ZM16.7432 27.857C16.7432 26.479 18.9912 24.937 21.9992 24.937C25.0072 24.937 27.2552 26.47 27.2552 27.84C27.2552 29.261 24.3962 29.559 21.9992 29.559C19.6022 29.559 16.7432 29.264 16.7432 27.857Z" fill="#202020"/>
<path d="M28.3897 21.0825C28.0577 21.0825 27.7547 20.8615 27.6647 20.5265C27.5577 20.1265 27.7957 19.7155 28.1957 19.6075C29.1327 19.3565 29.7877 18.5025 29.7877 17.5305C29.7877 16.5135 29.0677 15.6275 28.0737 15.4255C27.6677 15.3425 27.4067 14.9455 27.4887 14.5395C27.5727 14.1345 27.9667 13.8785 28.3737 13.9545C30.0627 14.2995 31.2877 15.8035 31.2877 17.5305C31.2877 19.1805 30.1757 20.6305 28.5837 21.0575C28.5187 21.0745 28.4527 21.0825 28.3897 21.0825Z" fill="#202020"/>
<path d="M30.1912 27.3991C30.2732 27.7451 30.5802 27.9771 30.9202 27.9771C30.9782 27.9771 31.0352 27.9701 31.0932 27.9571C32.1642 27.7051 32.9732 26.7501 32.9732 25.7371C32.9732 24.1661 31.0662 22.7361 28.9712 22.7361C28.5572 22.7361 28.2212 23.0721 28.2212 23.4861C28.2212 23.9001 28.5572 24.2361 28.9712 24.2361C30.4412 24.2361 31.4732 25.2091 31.4732 25.7371C31.4732 25.9841 31.2222 26.3861 30.7492 26.4971C30.3462 26.5921 30.0962 26.9961 30.1912 27.3991Z" fill="#202020"/>
<path d="M15.6114 21.0825C15.5484 21.0825 15.4824 21.0745 15.4184 21.0575C13.8244 20.6315 12.7114 19.1815 12.7114 17.5305C12.7114 15.8035 13.9374 14.2995 15.6264 13.9545C16.0334 13.8785 16.4284 14.1345 16.5114 14.5395C16.5934 14.9455 16.3324 15.3425 15.9264 15.4255C14.9324 15.6275 14.2114 16.5135 14.2114 17.5305C14.2114 18.5025 14.8664 19.3565 15.8044 19.6075C16.2054 19.7155 16.4424 20.1265 16.3364 20.5255C16.2464 20.8615 15.9434 21.0825 15.6114 21.0825Z" fill="#202020"/>
<path d="M12.9069 27.9571C12.9649 27.9711 13.0219 27.9771 13.0799 27.9771C13.4199 27.9771 13.7269 27.7451 13.8089 27.3991C13.9039 26.9961 13.6539 26.5911 13.2509 26.4971C12.7779 26.3861 12.5269 25.9841 12.5269 25.7371C12.5269 25.2091 13.5589 24.2361 15.0289 24.2361C15.4429 24.2361 15.7789 23.9001 15.7789 23.4861C15.7789 23.0721 15.4429 22.7361 15.0289 22.7361C12.9339 22.7361 11.0269 24.1661 11.0269 25.7371C11.0269 26.7501 11.8359 27.7061 12.9069 27.9571Z" fill="#202020"/>
</g>
<defs>
<clipPath id="clip0_692_1118">
<rect width="24" height="24" fill="white" transform="translate(10 10)"/>
</clipPath>
</defs>
</svg>
